<svg width="23" height="23" viewBox="0 0 23 23" fill="none" xmlns="http://www.w3.org/2000/svg">
<g clip-path="url(#clip0_52_509)">
<path d="M22.0759 11.038C22.0759 4.9419 17.1341 3.8147e-05 11.038 3.8147e-05C4.94186 3.8147e-05 0 4.9419 0 11.038C0 16.5474 4.03643 21.1138 9.31329 21.9419V14.2287H6.51068V11.038H9.31329V8.60621C9.31329 5.83982 10.9612 4.31175 13.4825 4.31175C14.6901 4.31175 15.9533 4.52733 15.9533 4.52733V7.24371H14.5615C13.1903 7.24371 12.7627 8.09456 12.7627 8.96747V11.038H15.824L15.3346 14.2287H12.7627V21.9419C18.0395 21.1138 22.0759 16.5474 22.0759 11.038Z" fill="black"/>
<path d="M15.3345 14.2289L15.8239 11.0382H12.7626V8.96765C12.7626 8.09474 13.1902 7.24389 14.5614 7.24389H15.9533V4.52752C15.9533 4.52752 14.6901 4.31193 13.4824 4.31193C10.9611 4.31193 9.31323 5.84 9.31323 8.60639V11.0382H6.51062V14.2289H9.31323V21.9421C9.8752 22.0303 10.4512 22.0762 11.0379 22.0762C11.6247 22.0762 12.2006 22.0303 12.7626 21.9421V14.2289H15.3345Z" fill="white"/>
</g>
<defs>
<clipPath id="clip0_52_509">
<rect width="22.0759" height="22.0759" fill="white"/>
</clipPath>
</defs>
</svg>
