<svg width="23" height="23" viewBox="0 0 23 23" fill="none" xmlns="http://www.w3.org/2000/svg">
<rect x="4.13928" y="4.8291" width="13.7975" height="13.1076" fill="white"/>
<path fill-rule="evenodd" clip-rule="evenodd" d="M0 11.038C0 4.94187 4.94187 0 11.038 0C17.1341 0 22.0759 4.94187 22.0759 11.038C22.0759 17.1341 17.1341 22.0759 11.038 22.0759C4.94187 22.0759 0 17.1341 0 11.038ZM11.0385 5.15105C9.43972 5.15105 9.23907 5.15805 8.61113 5.18662C7.98441 5.21532 7.55662 5.31454 7.18231 5.46012C6.79512 5.61048 6.46667 5.81162 6.13945 6.13896C5.81199 6.46618 5.61085 6.79463 5.46 7.1817C5.31405 7.55613 5.21471 7.98404 5.1865 8.61051C5.15841 9.23846 5.15105 9.43923 5.15105 11.038C5.15105 12.6368 5.15817 12.8369 5.18662 13.4648C5.21544 14.0915 5.31466 14.5193 5.46012 14.8936C5.61061 15.2808 5.81175 15.6093 6.13909 15.9365C6.46618 16.264 6.79463 16.4656 7.18157 16.6159C7.55613 16.7615 7.98404 16.8608 8.61064 16.8894C9.23858 16.918 9.43911 16.925 11.0378 16.925C12.6367 16.925 12.8368 16.918 13.4647 16.8894C14.0914 16.8608 14.5197 16.7615 14.8943 16.6159C15.2813 16.4656 15.6093 16.264 15.9364 15.9365C16.2638 15.6093 16.465 15.2808 16.6158 14.8938C16.7605 14.5193 16.8599 14.0914 16.8893 13.4649C16.9175 12.837 16.9249 12.6368 16.9249 11.038C16.9249 9.43923 16.9175 9.23858 16.8893 8.61064C16.8599 7.98392 16.7605 7.55613 16.6158 7.18182C16.465 6.79463 16.2638 6.46618 15.9364 6.13896C15.6089 5.8115 15.2814 5.61036 14.8939 5.46012C14.5186 5.31454 14.0906 5.21532 13.4638 5.18662C12.8359 5.15805 12.636 5.15105 11.0367 5.15105H11.0385Z" fill="black"/>
<path fill-rule="evenodd" clip-rule="evenodd" d="M10.5104 6.21194C10.6672 6.21169 10.842 6.21194 11.0385 6.21194C12.6104 6.21194 12.7966 6.21758 13.4174 6.24579C13.9913 6.27203 14.3029 6.36794 14.5104 6.44852C14.7851 6.55522 14.981 6.68277 15.1869 6.88882C15.3929 7.09486 15.5205 7.2911 15.6274 7.56582C15.708 7.77309 15.804 8.08461 15.8302 8.65859C15.8584 9.27918 15.8645 9.4656 15.8645 11.0367C15.8645 12.6078 15.8584 12.7942 15.8302 13.4148C15.8039 13.9888 15.708 14.3003 15.6274 14.5076C15.5207 14.7823 15.3929 14.9779 15.1869 15.1838C14.9808 15.3899 14.7852 15.5174 14.5104 15.6241C14.3031 15.7051 13.9913 15.8007 13.4174 15.827C12.7968 15.8552 12.6104 15.8613 11.0385 15.8613C9.46658 15.8613 9.28028 15.8552 8.6597 15.827C8.08572 15.8005 7.7742 15.7046 7.56656 15.624C7.29183 15.5173 7.0956 15.3897 6.88955 15.1837C6.68351 14.9777 6.55596 14.7819 6.44901 14.5071C6.36843 14.2998 6.2724 13.9883 6.24628 13.4143C6.21807 12.7937 6.21243 12.6073 6.21243 11.0352C6.21243 9.46315 6.21807 9.27771 6.24628 8.65712C6.27252 8.08314 6.36843 7.77162 6.44901 7.5641C6.55571 7.28938 6.68351 7.09315 6.88955 6.8871C7.0956 6.68106 7.29183 6.55351 7.56656 6.44656C7.77407 6.36561 8.08572 6.26995 8.6597 6.24358C9.20277 6.21905 9.41323 6.21169 10.5104 6.21047V6.21194ZM14.1809 7.18942C13.7909 7.18942 13.4745 7.50548 13.4745 7.89561C13.4745 8.28563 13.7909 8.60205 14.1809 8.60205C14.571 8.60205 14.8874 8.28563 14.8874 7.89561C14.8874 7.5056 14.571 7.18942 14.1809 7.18942ZM11.0385 8.01483C9.36895 8.01483 8.01532 9.36846 8.01532 11.038C8.01532 12.7076 9.36895 14.0606 11.0385 14.0606C12.7081 14.0606 14.0612 12.7076 14.0612 11.038C14.0612 9.36846 12.7081 8.01483 11.0385 8.01483Z" fill="black"/>
<path fill-rule="evenodd" clip-rule="evenodd" d="M11.0385 9.07571C12.1222 9.07571 13.0009 9.95422 13.0009 11.038C13.0009 12.1217 12.1222 13.0004 11.0385 13.0004C9.95471 13.0004 9.0762 12.1217 9.0762 11.038C9.0762 9.95422 9.95471 9.07571 11.0385 9.07571Z" fill="black"/>
</svg>
