<svg width="23" height="23" viewBox="0 0 23 23" fill="none" xmlns="http://www.w3.org/2000/svg">
<rect x="3.44934" y="4.8291" width="15.1772" height="13.7975" fill="#AA1111"/>
<path fill-rule="evenodd" clip-rule="evenodd" d="M0 11.038C0 4.94187 4.94187 0 11.038 0C17.1341 0 22.0759 4.94187 22.0759 11.038C22.0759 17.1341 17.1341 22.0759 11.038 22.0759C4.94187 22.0759 0 17.1341 0 11.038Z" fill="black"/>
<path fill-rule="evenodd" clip-rule="evenodd" d="M8.16868 8.32715H5.66724V15.5838H8.16868V8.32715Z" fill="white"/>
<path fill-rule="evenodd" clip-rule="evenodd" d="M8.33316 6.08254C8.31692 5.37103 7.78995 4.8291 6.93422 4.8291C6.07849 4.8291 5.51904 5.37103 5.51904 6.08254C5.51904 6.77931 6.06195 7.33684 6.90175 7.33684H6.91773C7.78995 7.33684 8.33316 6.77931 8.33316 6.08254Z" fill="white"/>
<path fill-rule="evenodd" clip-rule="evenodd" d="M17.1897 11.4235C17.1897 9.19461 15.9556 8.15723 14.3096 8.15723C12.9815 8.15723 12.3868 8.86156 12.0548 9.35566V8.32782H9.5531C9.58607 9.00875 9.5531 15.5845 9.5531 15.5845H12.0548V11.5318C12.0548 11.3149 12.0711 11.0985 12.1372 10.9433C12.318 10.51 12.7296 10.0614 13.4207 10.0614C14.3262 10.0614 14.6882 10.7268 14.6882 11.702V15.5843H17.1896L17.1897 11.4235Z" fill="white"/>
</svg>
