<svg width="135" height="51" viewBox="0 0 135 51" fill="none" xmlns="http://www.w3.org/2000/svg">
<path d="M21.0234 32L18.3516 22.1818H21.1065L22.6278 28.7784H22.7173L24.3026 22.1818H27.0064L28.6172 28.7401H28.7003L30.196 22.1818H32.9446L30.2791 32H27.3963L25.7088 25.8253H25.5874L23.8999 32H21.0234ZM34.3972 32V22.1818H37.1202V32H34.3972ZM35.7651 20.9162C35.3603 20.9162 35.013 20.782 34.7232 20.5135C34.4377 20.2408 34.2949 19.9148 34.2949 19.5355C34.2949 19.1605 34.4377 18.8388 34.7232 18.5703C35.013 18.2976 35.3603 18.1612 35.7651 18.1612C36.1699 18.1612 36.5151 18.2976 36.8006 18.5703C37.0904 18.8388 37.2353 19.1605 37.2353 19.5355C37.2353 19.9148 37.0904 20.2408 36.8006 20.5135C36.5151 20.782 36.1699 20.9162 35.7651 20.9162ZM42.0245 26.3239V32H39.3015V22.1818H41.8967V23.9141H42.0117C42.229 23.343 42.5934 22.8913 43.1048 22.5589C43.6161 22.2223 44.2362 22.054 44.9648 22.054C45.6467 22.054 46.2411 22.2031 46.7482 22.5014C47.2553 22.7997 47.6495 23.2259 47.9308 23.7798C48.212 24.3295 48.3526 24.9858 48.3526 25.7486V32H45.6296V26.2344C45.6339 25.6335 45.4805 25.1648 45.1694 24.8281C44.8583 24.4872 44.43 24.3168 43.8846 24.3168C43.5181 24.3168 43.1942 24.3956 42.913 24.5533C42.636 24.7109 42.4187 24.9411 42.261 25.2436C42.1076 25.5419 42.0288 25.902 42.0245 26.3239ZM55.7211 22.1818V24.2273H49.8084V22.1818H55.7211ZM51.1507 19.8295H53.8738V28.983C53.8738 29.2344 53.9121 29.4304 53.9888 29.571C54.0655 29.7074 54.1721 29.8033 54.3084 29.8587C54.449 29.9141 54.611 29.9418 54.7942 29.9418C54.9221 29.9418 55.0499 29.9311 55.1777 29.9098C55.3056 29.8842 55.4036 29.8651 55.4718 29.8523L55.9 31.8786C55.7637 31.9212 55.5719 31.9702 55.3248 32.0256C55.0776 32.0852 54.7772 32.1214 54.4235 32.1342C53.7672 32.1598 53.1919 32.0724 52.6976 31.8722C52.2076 31.6719 51.8262 31.3608 51.5534 30.9389C51.2807 30.517 51.1465 29.9844 51.1507 29.3409V19.8295ZM61.8638 32.1918C60.8539 32.1918 59.9846 31.9872 59.2559 31.5781C58.5314 31.1648 57.9732 30.581 57.5811 29.8267C57.1891 29.0682 56.9931 28.1712 56.9931 27.1357C56.9931 26.1257 57.1891 25.2393 57.5811 24.4766C57.9732 23.7138 58.525 23.1193 59.2367 22.6932C59.9526 22.267 60.7921 22.054 61.7551 22.054C62.4029 22.054 63.0059 22.1584 63.5641 22.3672C64.1266 22.5717 64.6167 22.8807 65.0343 23.294C65.4561 23.7074 65.7843 24.2273 66.0186 24.8537C66.253 25.4759 66.3702 26.2045 66.3702 27.0398V27.7876H58.0797V26.1001H63.807C63.807 25.7081 63.7218 25.3608 63.5513 25.0582C63.3809 24.7557 63.1444 24.5192 62.8418 24.3487C62.5435 24.174 62.1962 24.0866 61.7999 24.0866C61.3865 24.0866 61.0201 24.1825 60.7005 24.3743C60.3851 24.5618 60.138 24.8153 59.959 25.1349C59.78 25.4503 59.6884 25.8018 59.6841 26.1896V27.794C59.6841 28.2798 59.7736 28.6996 59.9526 29.0533C60.1358 29.407 60.3936 29.6797 60.726 29.8714C61.0584 30.0632 61.4526 30.1591 61.9086 30.1591C62.2111 30.1591 62.4881 30.1165 62.7395 30.0312C62.9909 29.946 63.2061 29.8182 63.3851 29.6477C63.5641 29.4773 63.7005 29.2685 63.7942 29.0213L66.3127 29.1875C66.1848 29.7926 65.9228 30.321 65.5265 30.7727C65.1344 31.2202 64.6273 31.5696 64.0051 31.821C63.3873 32.0682 62.6735 32.1918 61.8638 32.1918ZM68.1472 32V22.1818H70.7871V23.8949H70.8894C71.0684 23.2855 71.3688 22.8253 71.7907 22.5142C72.2125 22.1989 72.6983 22.0412 73.248 22.0412C73.3844 22.0412 73.5314 22.0497 73.6891 22.0668C73.8468 22.0838 73.9853 22.1072 74.1046 22.1371V24.5533C73.9767 24.5149 73.7999 24.4808 73.574 24.451C73.3482 24.4212 73.1415 24.4062 72.954 24.4062C72.5534 24.4062 72.1955 24.4936 71.8801 24.6683C71.5691 24.8388 71.3219 25.0774 71.1387 25.3842C70.9597 25.6911 70.8702 26.0447 70.8702 26.4453V32H68.1472ZM78.2354 18.9091V32H75.5124V18.9091H78.2354ZM86.7129 27.8196V22.1818H89.4359V32H86.8216V30.2166H86.7193C86.4977 30.7919 86.1291 31.2543 85.6135 31.6037C85.1021 31.9531 84.4778 32.1278 83.7406 32.1278C83.0843 32.1278 82.5069 31.9787 82.0083 31.6804C81.5098 31.3821 81.1199 30.9581 80.8386 30.4084C80.5616 29.8587 80.421 29.2003 80.4167 28.4332V22.1818H83.1397V27.9474C83.144 28.527 83.2995 28.9851 83.6064 29.3217C83.9132 29.6584 84.3244 29.8267 84.84 29.8267C85.1681 29.8267 85.475 29.7521 85.7605 29.603C86.046 29.4496 86.2761 29.2237 86.4508 28.9254C86.6298 28.6271 86.7172 28.2585 86.7129 27.8196ZM95.2319 32.1598C94.4862 32.1598 93.8107 31.968 93.2056 31.5845C92.6048 31.1967 92.1275 30.6278 91.7738 29.8778C91.4244 29.1236 91.2496 28.1989 91.2496 27.1037C91.2496 25.9787 91.4308 25.0433 91.793 24.2976C92.1552 23.5476 92.6367 22.9872 93.2376 22.6165C93.8427 22.2415 94.5053 22.054 95.2255 22.054C95.7752 22.054 96.2333 22.1477 96.5998 22.3352C96.9705 22.5185 97.2688 22.7486 97.4947 23.0256C97.7248 23.2983 97.8995 23.5668 98.0188 23.831H98.1019V18.9091H100.819V32H98.1339V30.4276H98.0188C97.891 30.7003 97.7099 30.9709 97.4755 31.2393C97.2454 31.5036 96.945 31.723 96.5742 31.8977C96.2077 32.0724 95.7603 32.1598 95.2319 32.1598ZM96.0948 29.9929C96.5337 29.9929 96.9045 29.8736 97.207 29.6349C97.5138 29.392 97.7482 29.0533 97.9102 28.6186C98.0763 28.1839 98.1594 27.6747 98.1594 27.0909C98.1594 26.5071 98.0785 26 97.9165 25.5696C97.7546 25.1392 97.5202 24.8068 97.2134 24.5724C96.9066 24.3381 96.5337 24.2209 96.0948 24.2209C95.6474 24.2209 95.2702 24.3423 94.9634 24.5852C94.6566 24.8281 94.4244 25.1648 94.2667 25.5952C94.109 26.0256 94.0302 26.5241 94.0302 27.0909C94.0302 27.6619 94.109 28.1669 94.2667 28.6058C94.4286 29.0405 94.6609 29.3814 94.9634 29.6286C95.2702 29.8714 95.6474 29.9929 96.0948 29.9929ZM107.532 32.1918C106.522 32.1918 105.653 31.9872 104.924 31.5781C104.199 31.1648 103.641 30.581 103.249 29.8267C102.857 29.0682 102.661 28.1712 102.661 27.1357C102.661 26.1257 102.857 25.2393 103.249 24.4766C103.641 23.7138 104.193 23.1193 104.905 22.6932C105.621 22.267 106.46 22.054 107.423 22.054C108.071 22.054 108.674 22.1584 109.232 22.3672C109.795 22.5717 110.285 22.8807 110.702 23.294C111.124 23.7074 111.452 24.2273 111.687 24.8537C111.921 25.4759 112.038 26.2045 112.038 27.0398V27.7876H103.748V26.1001H109.475C109.475 25.7081 109.39 25.3608 109.219 25.0582C109.049 24.7557 108.812 24.5192 108.51 24.3487C108.211 24.174 107.864 24.0866 107.468 24.0866C107.055 24.0866 106.688 24.1825 106.368 24.3743C106.053 24.5618 105.806 24.8153 105.627 25.1349C105.448 25.4503 105.356 25.8018 105.352 26.1896V27.794C105.352 28.2798 105.442 28.6996 105.621 29.0533C105.804 29.407 106.062 29.6797 106.394 29.8714C106.726 30.0632 107.121 30.1591 107.577 30.1591C107.879 30.1591 108.156 30.1165 108.407 30.0312C108.659 29.946 108.874 29.8182 109.053 29.6477C109.232 29.4773 109.368 29.2685 109.462 29.0213L111.981 29.1875C111.853 29.7926 111.591 30.321 111.194 30.7727C110.802 31.2202 110.295 31.5696 109.673 31.821C109.055 32.0682 108.341 32.1918 107.532 32.1918ZM119.517 18.2955L115.298 33.9688H112.952L117.171 18.2955H119.517Z" fill="#2D3385"/>
<path d="M114 2L132.102 24.6384L114.21 48.519" stroke="#2E3286" stroke-width="4" stroke-miterlimit="10"/>
<path d="M21.1023 2.48102L3 25.1194L20.8924 49" stroke="#2E3286" stroke-width="4" stroke-miterlimit="10"/>
</svg>
