<svg width="167" height="167" viewBox="0 0 167 167" fill="none" xmlns="http://www.w3.org/2000/svg">
<path d="M94.0339 150.63C94.1077 150.619 94.1681 150.626 94.2151 150.651C94.2531 150.688 94.2769 150.739 94.2866 150.802L95.4976 158.775C95.5184 158.912 95.4709 158.989 95.3549 159.007L94.4374 159.146C94.3214 159.164 94.2546 159.114 94.2369 158.998L94.0808 157.97C94.0711 157.907 94.0497 157.872 94.0165 157.867C93.9832 157.861 93.9443 157.888 93.8995 157.949C93.675 158.318 93.4461 158.622 93.2129 158.863C92.9708 159.115 92.7198 159.31 92.4601 159.446C92.2019 159.593 91.9357 159.688 91.6615 159.729C91.2924 159.786 91.0975 159.745 91.0766 159.608L90.9325 158.659C90.9164 158.553 90.9575 158.504 91.0556 158.511C91.1521 158.507 91.2645 158.5 91.3926 158.492C91.5102 158.485 91.6376 158.471 91.7747 158.45C92.0067 158.415 92.2465 158.324 92.4941 158.179C92.7433 158.044 92.9703 157.869 93.1751 157.655C93.3693 157.442 93.5234 157.213 93.6374 156.969C93.7514 156.726 93.7916 156.493 93.758 156.271L92.9626 151.035C92.9386 150.877 93.0056 150.786 93.1638 150.762L94.0339 150.63Z" fill="black"/>
<path d="M86.3795 155.131C86.3616 154.608 86.2226 154.133 85.9624 153.704C85.6919 153.286 85.3444 152.957 84.9198 152.715C84.4847 152.474 84.0059 152.362 83.4835 152.38C82.9505 152.399 82.4798 152.521 82.0713 152.749C81.6633 152.987 81.3177 153.335 81.0345 153.793C80.9934 153.837 80.9621 153.86 80.9408 153.86C80.9092 153.872 80.8663 153.868 80.8123 153.849L80.1292 153.536C80.0314 153.486 80.0182 153.412 80.0895 153.313C80.3627 152.877 80.6705 152.514 81.0127 152.225C81.3447 151.947 81.7217 151.736 82.1438 151.594C82.5658 151.451 83.0433 151.371 83.5763 151.352C84.3652 151.325 85.0697 151.483 85.6897 151.824C86.3098 152.166 86.8069 152.656 87.181 153.294C87.5551 153.932 87.7568 154.678 87.7861 155.531C87.8179 156.458 87.6693 157.258 87.3402 157.931C87.0008 158.615 86.5335 159.149 85.9383 159.532C85.3324 159.916 84.651 160.121 83.8941 160.147C83.1159 160.173 82.4331 160.026 81.8458 159.705C81.2584 159.383 80.7936 158.903 80.4515 158.264C80.1094 157.624 79.9226 156.846 79.8911 155.93C79.8886 155.855 79.8967 155.78 79.9154 155.705C79.9235 155.63 79.9915 155.59 80.1195 155.585L86.2439 155.375C86.2865 155.374 86.3229 155.346 86.3531 155.292C86.3729 155.248 86.3817 155.194 86.3795 155.131ZM81.5248 156.418C81.4076 156.422 81.3333 156.435 81.3021 156.457C81.2712 156.491 81.2574 156.555 81.2607 156.651C81.2764 157.109 81.3923 157.532 81.6084 157.92C81.8142 158.318 82.1078 158.634 82.4894 158.866C82.8602 159.099 83.3069 159.206 83.8292 159.188C84.4049 159.169 84.8852 159.013 85.2701 158.723C85.6554 158.443 85.9418 158.081 86.1293 157.637C86.3169 157.193 86.4024 156.731 86.386 156.251L81.5248 156.418Z" fill="black"/>
<path d="M70.0455 159.178C69.9393 159.167 69.8671 159.139 69.8288 159.092C69.7799 159.045 69.7597 158.978 69.768 158.893L69.8228 158.336C69.8322 158.24 69.8661 158.169 69.9244 158.121C69.972 158.072 70.0537 158.059 70.1695 158.081C70.3393 158.097 70.489 158.101 70.6185 158.093C70.7479 158.084 70.879 158.059 71.0116 158.019C71.2757 157.948 71.3939 157.837 71.366 157.684C71.3245 157.562 71.2802 157.413 71.2332 157.237C71.1851 157.071 71.1747 156.851 71.2018 156.575C71.2478 156.107 71.4121 155.69 71.6949 155.321C71.9766 154.963 72.3891 154.692 72.9322 154.51C73.4647 154.327 74.1237 154.273 74.9093 154.351C75.4507 154.404 75.8784 154.414 76.1925 154.38C76.5066 154.347 76.7326 154.283 76.8704 154.19C77.0083 154.096 77.0829 153.991 77.0944 153.874C77.1111 153.704 77.0116 153.571 76.796 153.475C76.5698 153.378 76.2035 153.288 75.6971 153.206L73.6539 152.893C72.725 152.748 72.0622 152.458 71.6656 152.022C71.269 151.586 71.102 151.05 71.1646 150.413C71.2429 149.617 71.6602 149.026 72.4163 148.639C73.1628 148.241 74.189 148.106 75.4947 148.235C76.8428 148.367 77.8532 148.665 78.5258 149.128C79.1889 149.579 79.4849 150.165 79.4139 150.887C79.3774 151.258 79.2171 151.58 78.9331 151.853C78.6385 152.124 78.2408 152.352 77.7402 152.539C77.6182 152.581 77.6124 152.639 77.7229 152.714C77.946 152.843 78.114 152.988 78.2268 153.15C78.3385 153.321 78.3839 153.513 78.363 153.726C78.3484 153.874 78.286 154.018 78.1759 154.157C78.0657 154.297 77.9141 154.421 77.7212 154.531C77.5175 154.639 77.2784 154.728 77.0036 154.798C76.9378 154.813 76.9033 154.836 76.9002 154.868C76.8971 154.9 76.92 154.94 76.9689 154.987C77.413 155.267 77.7293 155.593 77.9177 155.965C78.1062 156.337 78.1764 156.767 78.1284 157.256C78.047 158.084 77.6696 158.706 76.9963 159.122C76.3231 159.538 75.4132 159.69 74.2667 159.577C73.7147 159.523 73.2539 159.413 72.8843 159.248C72.504 159.082 72.1922 158.874 71.9487 158.625C71.8902 158.566 71.8344 158.534 71.7814 158.529C71.7283 158.523 71.6726 158.545 71.6143 158.593C71.4754 158.697 71.3212 158.794 71.1515 158.885C70.9808 158.986 70.8015 159.065 70.6138 159.121C70.4154 159.177 70.226 159.196 70.0455 159.178ZM74.8263 155.195C74.0832 155.122 73.5166 155.216 73.1264 155.478C72.7352 155.75 72.5125 156.162 72.4582 156.714C72.4029 157.277 72.54 157.735 72.8696 158.089C73.1982 158.454 73.734 158.672 74.4771 158.745C75.1883 158.815 75.7565 158.705 76.1816 158.415C76.5951 158.134 76.8295 157.712 76.8848 157.149C76.9391 156.597 76.7903 156.149 76.4385 155.803C76.0749 155.467 75.5375 155.265 74.8263 155.195ZM76.536 152.196C76.726 152.225 76.9441 152.187 77.1902 152.083C77.4352 151.989 77.6584 151.845 77.8597 151.65C78.0611 151.456 78.1758 151.215 78.204 150.929C78.2364 150.6 78.1526 150.307 77.9526 150.052C77.7431 149.785 77.4158 149.57 76.9708 149.409C76.5163 149.235 75.9493 149.115 75.2699 149.049C74.3888 148.962 73.707 149.029 73.2245 149.249C72.7429 149.459 72.4756 149.835 72.4223 150.376C72.3879 150.727 72.4818 151.025 72.704 151.272C72.9156 151.518 73.3118 151.686 73.8925 151.775L76.536 152.196Z" fill="black"/>
<path d="M67.6808 149.974C67.7029 149.869 67.7393 149.801 67.7899 149.768C67.8279 149.743 67.9042 149.743 68.019 149.767L68.8172 149.937C68.9111 149.957 68.9704 149.986 68.995 150.024C69.0197 150.062 69.0232 150.122 69.0055 150.206L67.3375 158.063C67.3065 158.209 67.2284 158.269 67.1032 158.242L66.1485 158.039C66.0337 158.015 65.9907 157.935 66.0195 157.799L67.6808 149.974ZM65.5349 159.774C65.577 159.575 65.692 159.496 65.8798 159.536L66.7876 159.729C66.8815 159.749 66.9396 159.783 66.9621 159.831C66.9823 159.89 66.9836 159.961 66.9658 160.045L66.6867 161.359C66.6513 161.526 66.5605 161.594 66.4145 161.563L65.4284 161.354C65.2824 161.323 65.2259 161.229 65.2592 161.073L65.5349 159.774Z" fill="black"/>
<path d="M56.7019 153.309C56.8055 153.679 57.0085 154.02 57.3108 154.332C57.6131 154.644 58.0178 154.882 58.5249 155.047C59.0726 155.226 59.567 155.258 60.0081 155.144C60.4391 155.026 60.719 154.77 60.8479 154.374C60.9173 154.161 60.9023 153.932 60.8028 153.686C60.7 153.451 60.4266 153.171 59.9826 152.847L58.239 151.639C57.602 151.218 57.1909 150.776 57.0056 150.312C56.8102 149.844 56.7902 149.372 56.9455 148.895C57.1008 148.419 57.3783 148.049 57.778 147.787C58.1776 147.524 58.659 147.373 59.222 147.332C59.7818 147.301 60.376 147.388 61.0048 147.593C61.806 147.854 62.4546 148.239 62.9505 148.749C63.443 149.268 63.7384 149.808 63.8366 150.367C63.8505 150.428 63.8509 150.478 63.8377 150.519C63.8244 150.559 63.7875 150.587 63.7269 150.6L63.0245 150.742C62.9639 150.756 62.915 150.751 62.8777 150.728C62.8371 150.714 62.8117 150.689 62.8013 150.652C62.7148 150.332 62.5914 150.04 62.4311 149.774C62.2607 149.506 62.0364 149.264 61.7584 149.05C61.4702 148.833 61.1131 148.655 60.6872 148.516C60.2985 148.4 59.9304 148.342 59.583 148.341C59.2355 148.34 58.9391 148.406 58.6938 148.539C58.4451 148.683 58.2778 148.886 58.1919 149.15C58.1027 149.424 58.1382 149.693 58.2985 149.959C58.4555 150.234 58.7831 150.537 59.2812 150.868L60.7043 151.82C61.3988 152.271 61.8471 152.72 62.0491 153.167C62.241 153.611 62.2659 154.068 62.1241 154.538C61.9654 155.024 61.6964 155.402 61.317 155.671C60.9344 155.95 60.4767 156.115 59.9441 156.166C59.4013 156.214 58.8257 156.138 58.2172 155.94C57.5377 155.719 56.9772 155.39 56.5358 154.954C56.0809 154.526 55.786 154.054 55.651 153.539C55.6338 153.488 55.6318 153.443 55.645 153.402C55.6549 153.372 55.6851 153.348 55.7356 153.331L56.4886 153.189C56.5357 153.182 56.5796 153.185 56.6202 153.198C56.6473 153.218 56.6745 153.255 56.7019 153.309Z" fill="black"/>
<path d="M50.246 151.392C50.3235 151.428 50.3801 151.407 50.4158 151.33L52.5371 146.723C52.7467 146.267 52.8098 145.926 52.7261 145.7C52.6425 145.473 52.4456 145.289 52.1356 145.146L51.1328 144.684C51.0843 144.662 51.0523 144.63 51.0366 144.587C51.0164 144.555 51.0197 144.509 51.0465 144.451L51.2886 143.964C51.3332 143.867 51.4203 143.83 51.5499 143.855C51.6558 143.88 51.8029 143.93 51.9915 144.005C52.1704 144.076 52.3492 144.147 52.5281 144.217C52.6928 144.293 52.8333 144.358 52.9495 144.411C53.56 144.692 53.941 145.038 54.0926 145.448C54.2397 145.868 54.1705 146.388 53.885 147.009L51.65 151.863C51.6054 151.96 51.6315 152.03 51.7284 152.075L52.8911 152.61C52.9977 152.659 53.0264 152.737 52.9774 152.844L52.6963 153.454C52.6517 153.551 52.5809 153.577 52.4841 153.533L51.2487 152.964C51.1809 152.933 51.1291 152.956 51.0934 153.033L49.8696 155.27C49.8019 155.392 49.7196 155.43 49.6227 155.386L48.8961 155.051C48.7798 154.998 48.7529 154.903 48.8154 154.767L49.8726 152.471C49.9083 152.394 49.8874 152.337 49.8099 152.301L47.9787 151.458C47.8721 151.409 47.8389 151.341 47.879 151.254L48.1668 150.629C48.2159 150.522 48.2937 150.493 48.4003 150.543L50.246 151.392Z" fill="black"/>
<path d="M46.3344 144.998C46.6066 144.552 46.752 144.079 46.7704 143.577C46.7741 143.08 46.6651 142.613 46.4434 142.178C46.2125 141.737 45.874 141.381 45.4279 141.109C44.9726 140.831 44.5119 140.675 44.0457 140.64C43.5739 140.614 43.0938 140.715 42.6055 140.942C42.5469 140.956 42.5084 140.958 42.4902 140.947C42.4574 140.939 42.4237 140.912 42.3893 140.866L41.9907 140.229C41.9366 140.134 41.9664 140.065 42.0801 140.021C42.5482 139.807 43.0047 139.674 43.4497 139.62C43.8799 139.57 44.3105 139.602 44.7414 139.715C45.1723 139.828 45.6153 140.023 46.0706 140.301C46.7444 140.712 47.2463 141.231 47.5763 141.857C47.9064 142.484 48.0522 143.166 48.0137 143.905C47.9752 144.644 47.7337 145.377 47.2892 146.106C46.8058 146.898 46.2416 147.485 45.5966 147.866C44.9369 148.25 44.2532 148.439 43.5452 148.432C42.8282 148.419 42.1465 148.216 41.5 147.821C40.8354 147.416 40.3461 146.917 40.0322 146.326C39.7184 145.734 39.5944 145.077 39.6602 144.355C39.726 143.633 39.9978 142.881 40.4757 142.098C40.5146 142.034 40.5626 141.976 40.6197 141.923C40.6677 141.865 40.7463 141.869 40.8556 141.936L46.0864 145.128C46.1228 145.15 46.1686 145.147 46.2237 145.118C46.2641 145.093 46.301 145.053 46.3344 144.998ZM41.5717 143.404C41.4715 143.343 41.4022 143.313 41.3638 143.314C41.3198 143.325 41.2728 143.371 41.2228 143.453C40.9839 143.845 40.8481 144.262 40.8155 144.704C40.7683 145.15 40.8401 145.575 41.0309 145.979C41.2127 146.378 41.5267 146.713 41.9728 146.985C42.4645 147.285 42.951 147.42 43.4324 147.388C43.9082 147.366 44.3465 147.222 44.7473 146.954C45.1481 146.686 45.4735 146.347 45.7236 145.938L41.5717 143.404Z" fill="black"/>
<path d="M41.6026 137.292C41.6613 137.338 41.6977 137.387 41.7115 137.438C41.7104 137.492 41.6901 137.544 41.6507 137.594L36.6785 143.943C36.593 144.052 36.5041 144.07 36.4117 143.998L35.6811 143.426C35.5888 143.353 35.5787 143.271 35.6511 143.179L36.2923 142.36C36.3318 142.31 36.3422 142.27 36.3236 142.242C36.305 142.214 36.2582 142.205 36.1834 142.214C35.7611 142.303 35.3826 142.345 35.0477 142.34C34.6978 142.337 34.3841 142.288 34.1065 142.193C33.8224 142.106 33.5712 141.977 33.3529 141.806C33.0589 141.575 32.9547 141.406 33.0402 141.297L33.6322 140.541C33.6979 140.457 33.762 140.453 33.8244 140.529C33.8934 140.596 33.975 140.674 34.0692 140.761C34.155 140.842 34.2525 140.925 34.3617 141.011C34.5464 141.155 34.7767 141.268 35.0524 141.348C35.3215 141.437 35.6044 141.482 35.9009 141.484C36.1891 141.48 36.461 141.435 36.7167 141.351C36.9724 141.267 37.1693 141.136 37.3074 140.96L40.5728 136.791C40.6715 136.665 40.7838 136.651 40.9097 136.75L41.6026 137.292Z" fill="black"/>
<path d="M32.1748 128.515C32.271 128.629 32.266 128.731 32.16 128.82L25.9921 134.015C25.8861 134.104 25.7952 134.104 25.7196 134.015L25.1012 133.28C25.0256 133.19 25.0327 133.108 25.1225 133.032L25.8322 132.434C25.873 132.4 25.8906 132.371 25.8851 132.348C25.8795 132.325 25.8432 132.307 25.7762 132.293C25.3373 132.203 24.9483 132.105 24.609 132C24.2547 131.894 23.9378 131.75 23.6582 131.567C23.3705 131.391 23.1098 131.164 22.8762 130.887C22.3402 130.25 22.1027 129.621 22.1636 128.998C22.2177 128.366 22.518 127.821 23.0647 127.36L27.6294 123.516C27.7599 123.406 27.8767 123.412 27.9798 123.534L28.557 124.22C28.6051 124.277 28.6272 124.328 28.6233 124.373C28.6113 124.425 28.5808 124.471 28.5319 124.513L24.163 128.192C23.7632 128.529 23.5391 128.892 23.4906 129.282C23.4339 129.678 23.5911 130.096 23.9622 130.537C24.1614 130.774 24.3912 130.964 24.6514 131.107C24.8967 131.249 25.182 131.364 25.5075 131.453C25.8249 131.548 26.2036 131.634 26.6438 131.709L31.2697 127.813C31.3921 127.71 31.5048 127.72 31.6079 127.842L32.1748 128.515Z" fill="black"/>
<path d="M24.8077 118.177C25.2342 118.854 25.459 119.551 25.4821 120.268C25.4904 120.981 25.3103 121.656 24.9418 122.291C24.5587 122.924 24.0061 123.467 23.2842 123.922C22.5352 124.394 21.7899 124.662 21.0485 124.726C20.2923 124.787 19.5942 124.659 18.9542 124.344C18.3141 124.029 17.7809 123.532 17.3543 122.856C16.9221 122.17 16.7092 121.472 16.7156 120.762C16.7072 120.048 16.8992 119.373 17.2914 118.735C17.6689 118.093 18.2231 117.542 18.9541 117.082C19.676 116.627 20.4077 116.367 21.1492 116.303C21.8816 116.245 22.5679 116.374 23.2079 116.689C23.8422 116.995 24.3755 117.491 24.8077 118.177ZM23.9379 118.688C23.6421 118.218 23.2763 117.888 22.8402 117.696C22.3952 117.51 21.9066 117.465 21.3744 117.561C20.8275 117.653 20.2562 117.887 19.6606 118.263C19.0651 118.638 18.6121 119.05 18.3017 119.497C17.9823 119.951 17.8105 120.418 17.7863 120.9C17.7621 121.382 17.8978 121.857 18.1936 122.327C18.4836 122.787 18.854 123.115 19.3047 123.31C19.7555 123.505 20.2571 123.56 20.8097 123.477C21.3476 123.39 21.9143 123.159 22.5099 122.784C23.0965 122.414 23.5495 122.003 23.8689 121.549C24.1826 121.087 24.3487 120.61 24.3672 120.119C24.3767 119.634 24.2336 119.157 23.9379 118.688Z" fill="black"/>
<path d="M9.76333 106.686C9.73757 106.627 9.74267 106.572 9.77862 106.522C9.8048 106.475 9.85148 106.449 9.91866 106.443L18.2567 105.452C18.3337 105.441 18.3975 105.454 18.4483 105.49C18.4947 105.516 18.5351 105.568 18.5695 105.646L18.8785 106.349C18.9515 106.515 18.9331 106.646 18.8233 106.741L14.1114 110.892C14.0406 110.969 14.0117 111.023 14.0246 111.052C14.0375 111.081 14.0921 111.086 14.1886 111.067L20.3943 110.315C20.4712 110.304 20.5351 110.317 20.5858 110.353C20.6323 110.379 20.6727 110.431 20.707 110.509L21.0354 111.256C21.1041 111.412 21.0857 111.543 20.9802 111.647L14.6445 117.194C14.5902 117.229 14.537 117.241 14.4851 117.229C14.4234 117.221 14.3775 117.183 14.3475 117.115L13.9676 116.25C13.9419 116.192 13.9351 116.137 13.9472 116.085C13.9495 116.037 13.9757 115.991 14.0257 115.945L18.9574 111.698C19.0422 111.625 19.076 111.57 19.0588 111.531C19.0319 111.496 18.961 111.481 18.8462 111.484L12.3886 112.261C12.3312 112.262 12.2863 112.253 12.2539 112.232C12.2074 112.206 12.1734 112.169 12.152 112.12L11.8494 111.431C11.8236 111.373 11.8168 111.318 11.8289 111.266C11.8313 111.218 11.8596 111.176 11.9139 111.141L16.8198 106.835C16.9046 106.763 16.9384 106.707 16.9212 106.668C16.8943 106.633 16.8256 106.622 16.7151 106.636L10.2914 107.45C10.22 107.446 10.1659 107.429 10.1292 107.399C10.0827 107.373 10.0466 107.33 10.0209 107.272L9.76333 106.686Z" fill="black"/>
<path d="M10.9789 97.1566C11.1354 97.1236 11.2324 97.1958 11.2698 97.3732L11.5305 98.6101C11.5613 98.7562 11.5036 98.8447 11.3575 98.8755L10.0893 99.1427C9.96409 99.1691 9.89156 99.1353 9.87177 99.0414L9.56822 97.601C9.54842 97.5071 9.59593 97.448 9.71074 97.4238L10.9789 97.1566Z" fill="black"/>
<path d="M15.0638 85.6606C15.0659 85.7353 15.0515 85.7943 15.0207 85.8379C14.979 85.8711 14.9261 85.8885 14.8621 85.8903L6.80123 86.114C6.66262 86.1178 6.59168 86.0611 6.58843 85.9438L6.56269 85.0161C6.55944 84.8989 6.61645 84.8386 6.73374 84.8353L7.77334 84.8065C7.83732 84.8047 7.87419 84.7877 7.88397 84.7554C7.89374 84.7231 7.87123 84.6811 7.81644 84.6292C7.47821 84.3612 7.2041 84.0967 6.99412 83.8357C6.77317 83.5644 6.61088 83.2915 6.50722 83.0169C6.3929 82.7426 6.3319 82.4669 6.32421 82.1897C6.31385 81.8165 6.37798 81.628 6.5166 81.6241L7.47623 81.5975C7.58285 81.5945 7.62683 81.6413 7.60817 81.7379C7.60017 81.8341 7.59262 81.9464 7.5855 82.0746C7.57809 82.1922 7.57631 82.3203 7.58016 82.4589C7.58667 82.6935 7.64693 82.9426 7.76095 83.2062C7.86431 83.4701 8.00988 83.7168 8.19765 83.9464C8.38513 84.1653 8.59289 84.3462 8.82095 84.4893C9.049 84.6324 9.27499 84.7008 9.4989 84.6946L14.7929 84.5477C14.9528 84.5433 15.035 84.621 15.0394 84.781L15.0638 85.6606Z" fill="black"/>
<path d="M11.5365 77.512C12.0571 77.5583 12.5461 77.4786 13.0035 77.273C13.4511 77.0558 13.8209 76.7514 14.1127 76.3597C14.4055 75.9574 14.5751 75.4959 14.6214 74.9753C14.6686 74.4441 14.6044 73.9618 14.4288 73.5285C14.2425 73.0943 13.9395 72.7086 13.5197 72.3715C13.481 72.3252 13.4626 72.2914 13.4645 72.2702C13.4567 72.2373 13.4658 72.1953 13.4918 72.1441L13.886 71.5045C13.9476 71.4136 14.0229 71.4096 14.1119 71.4925C14.5114 71.8171 14.8337 72.1671 15.0787 72.5422C15.3141 72.9059 15.4767 73.3058 15.5663 73.7422C15.656 74.1785 15.6773 74.6623 15.63 75.1935C15.5601 75.9797 15.3176 76.6596 14.9025 77.2331C14.4874 77.8066 13.9402 78.2398 13.2609 78.5327C12.5816 78.8257 11.8169 78.9344 10.9669 78.8588C10.0426 78.7766 9.26665 78.5309 8.6391 78.1217C8.00188 77.7009 7.52957 77.1716 7.2222 76.5339C6.91577 75.8855 6.7961 75.1842 6.8632 74.4298C6.93219 73.6542 7.16219 72.9947 7.55321 72.4512C7.94423 71.9077 8.47798 71.5054 9.15443 71.2443C9.83089 70.9832 10.626 70.8933 11.5397 70.9745C11.6141 70.9812 11.6875 70.9984 11.76 71.0263C11.8334 71.0435 11.8645 71.1159 11.8531 71.2434L11.3102 77.3473C11.3064 77.3898 11.3297 77.4293 11.38 77.4659C11.4206 77.4909 11.4728 77.5063 11.5365 77.512ZM10.8547 72.536C10.8651 72.4191 10.8611 72.3438 10.8427 72.31C10.8136 72.2753 10.7513 72.2537 10.6557 72.2452C10.1988 72.2046 9.76483 72.2677 9.35376 72.4346C8.93301 72.5899 8.58391 72.8427 8.30647 73.1928C8.02997 73.5323 7.86857 73.9624 7.82226 74.483C7.77123 75.0567 7.86635 75.5524 8.10763 75.9701C8.33828 76.3869 8.66244 76.7155 9.0801 76.9561C9.49775 77.1968 9.94564 77.3383 10.4238 77.3809L10.8547 72.536Z" fill="black"/>
<path d="M9.52394 60.8047C9.54732 60.7006 9.58451 60.6324 9.63549 60.6002C9.68881 60.5575 9.7571 60.5455 9.84036 60.5642L10.3867 60.687C10.4804 60.708 10.5474 60.7504 10.5877 60.8141C10.6304 60.8675 10.6337 60.9502 10.5976 61.0623C10.5601 61.2289 10.5378 61.3769 10.5306 61.5065C10.5233 61.636 10.5317 61.7691 10.5557 61.9057C10.5932 62.1765 10.6895 62.3075 10.8445 62.2986C10.9707 62.2723 11.1241 62.2466 11.3046 62.2216C11.4748 62.1942 11.6951 62.2109 11.9657 62.2717C12.4236 62.3746 12.8182 62.589 13.1495 62.9149C13.4704 63.2385 13.688 63.6809 13.8023 64.2423C13.919 64.7933 13.8909 65.4539 13.7178 66.224C13.5985 66.7548 13.5362 67.1781 13.5308 67.4939C13.5255 67.8098 13.5608 68.0418 13.6368 68.1901C13.7128 68.3384 13.808 68.4254 13.9225 68.4511C14.089 68.4885 14.2333 68.4061 14.3552 68.2039C14.4795 67.9914 14.6134 67.6388 14.7569 67.1463L15.3187 65.157C15.5765 64.2529 15.9459 63.6308 16.4269 63.2906C16.9078 62.9504 17.4605 62.8505 18.0849 62.9908C18.8655 63.1662 19.4011 63.6528 19.692 64.4507C19.9955 65.2404 20.0035 66.2754 19.7158 67.5555C19.4188 68.8772 18.9995 69.8434 18.4577 70.4541C17.9287 71.0568 17.3103 71.2786 16.6027 71.1196C16.2384 71.0378 15.9387 70.8392 15.7034 70.524C15.4704 70.1983 15.2921 69.7756 15.1684 69.2558C15.1421 69.1296 15.0848 69.1168 14.9967 69.2172C14.8412 69.4228 14.6765 69.5717 14.5028 69.6638C14.3186 69.7536 14.1224 69.7751 13.9143 69.7284C13.7686 69.6956 13.6334 69.616 13.5088 69.4896C13.3841 69.3632 13.2792 69.1975 13.1941 68.9926C13.1113 68.7772 13.0523 68.5289 13.0171 68.2476C13.0103 68.1805 12.9913 68.1434 12.9601 68.1364C12.9289 68.1294 12.8866 68.1472 12.8333 68.1899C12.5014 68.5964 12.1392 68.8703 11.7467 69.0117C11.3541 69.1531 10.9185 69.17 10.4398 69.0624C9.628 68.88 9.05695 68.4291 8.72661 67.7099C8.39626 66.9906 8.35738 66.069 8.60995 64.945C8.73156 64.4039 8.8969 63.96 9.10597 63.6134C9.31739 63.2564 9.5616 62.9723 9.83862 62.7613C9.90469 62.7105 9.94357 62.6591 9.95526 62.6071C9.96695 62.5551 9.95263 62.4972 9.91228 62.4335C9.82587 62.2828 9.74817 62.1178 9.67917 61.9383C9.59977 61.7565 9.54353 61.5689 9.51043 61.3756C9.47968 61.1719 9.48418 60.9816 9.52394 60.8047ZM12.8904 66.0381C13.0541 65.3096 13.0301 64.7357 12.8182 64.3164C12.5959 63.8947 12.2141 63.6231 11.673 63.5015C11.1214 63.3775 10.6497 63.4574 10.258 63.7411C9.85587 64.0224 9.57296 64.5273 9.40925 65.2558C9.25257 65.9531 9.29227 66.5305 9.52836 66.9881C9.75638 67.4329 10.1462 67.7173 10.6978 67.8412C11.2389 67.9628 11.7025 67.8702 12.0885 67.5634C12.4664 67.2438 12.7338 66.7354 12.8904 66.0381ZM15.6571 68.1029C15.6046 68.2879 15.615 68.5089 15.6885 68.7659C15.7515 69.0206 15.8672 69.2598 16.0356 69.4835C16.204 69.7072 16.4287 69.8506 16.7097 69.9137C17.0323 69.9862 17.3326 69.9389 17.6107 69.7718C17.9015 69.5967 18.1544 69.2982 18.3695 68.8764C18.5972 68.4466 18.786 67.8986 18.9356 67.2325C19.1298 66.3688 19.147 65.6839 18.9874 65.1779C18.8382 64.6743 18.4982 64.3628 17.9674 64.2435C17.624 64.1664 17.3161 64.2229 17.0438 64.4132C16.7738 64.593 16.5588 64.9656 16.399 65.531L15.6571 68.1029Z" fill="black"/>
<path d="M18.9489 59.5873C19.0498 59.622 19.1134 59.6666 19.1398 59.7208C19.1596 59.7615 19.1504 59.8373 19.1121 59.9482L18.846 60.7196C18.8147 60.8104 18.7787 60.8656 18.738 60.8855C18.6973 60.9053 18.6367 60.9013 18.556 60.8734L10.9631 58.254C10.8219 58.2053 10.7722 58.1205 10.814 57.9995L11.1323 57.0768C11.1705 56.9659 11.2552 56.9331 11.3863 56.9783L18.9489 59.5873ZM9.48625 56.2551C9.67784 56.3212 9.74233 56.445 9.67971 56.6265L9.37707 57.5038C9.34576 57.5945 9.30473 57.6481 9.25396 57.6644C9.1931 57.6773 9.12234 57.6698 9.04167 57.6419L7.77115 57.2036C7.60982 57.148 7.5535 57.0496 7.6022 56.9084L7.93093 55.9555C7.97963 55.8143 8.07961 55.7698 8.23086 55.822L9.48625 56.2551Z" fill="black"/>
<path d="M16.986 48.282C16.6057 48.3394 16.2424 48.499 15.896 48.7608C15.5495 49.0226 15.2632 49.395 15.037 49.8779C14.7927 50.3995 14.7001 50.8863 14.7594 51.3381C14.8232 51.7802 15.0435 52.0895 15.4202 52.266C15.6231 52.361 15.8524 52.3742 16.1084 52.3056C16.3546 52.2325 16.6659 51.9955 17.0422 51.5946L18.4547 50.0124C18.9504 49.4318 19.44 49.0781 19.9235 48.9512C20.4115 48.8146 20.8825 48.8527 21.3365 49.0653C21.7905 49.278 22.1232 49.5987 22.3346 50.0276C22.546 50.4564 22.6374 50.9527 22.6089 51.5165C22.5707 52.0758 22.4114 52.6549 22.1308 53.2538C21.7734 54.0169 21.3115 54.6133 20.7451 55.0429C20.169 55.468 19.5974 55.695 19.0303 55.7238C18.9685 55.7302 18.9182 55.7243 18.8796 55.7062C18.8409 55.6881 18.8184 55.6481 18.8121 55.5863L18.758 54.8719C18.7516 54.81 18.7623 54.762 18.7901 54.7279C18.8082 54.6893 18.8363 54.6671 18.8743 54.6613C19.2024 54.6147 19.5079 54.5282 19.791 54.4016C20.0786 54.2654 20.3456 54.0725 20.5922 53.8228C20.8432 53.5635 21.0637 53.231 21.2538 52.8253C21.4161 52.4537 21.519 52.0956 21.5627 51.7509C21.6064 51.4062 21.5772 51.1039 21.4751 50.8441C21.3633 50.5797 21.1819 50.3887 20.9307 50.2711C20.6699 50.1489 20.398 50.1511 20.1149 50.2776C19.8222 50.3997 19.4812 50.6875 19.092 51.1413L17.9727 52.4369C17.4402 53.0708 16.9396 53.4606 16.4709 53.6062C16.0067 53.7422 15.5502 53.7109 15.1014 53.5124C14.6377 53.2952 14.2957 52.9819 14.0752 52.5724C13.8451 52.1584 13.7376 51.6839 13.7525 51.1491C13.772 50.6046 13.9174 50.0426 14.1889 49.463C14.4921 48.8158 14.8869 48.2999 15.3733 47.9153C15.8546 47.5164 16.3591 47.2816 16.887 47.2108C16.9392 47.2 16.9846 47.2036 17.0233 47.2217C17.0523 47.2352 17.0722 47.2681 17.0831 47.3203L17.1313 48.085C17.1325 48.1327 17.1241 48.1758 17.106 48.2145C17.0827 48.2389 17.0427 48.2614 16.986 48.282Z" fill="black"/>
<path d="M19.6801 42.1102C19.6352 42.1827 19.649 42.2415 19.7215 42.2864L24.0336 44.9569C24.4598 45.2209 24.7903 45.3253 25.0253 45.27C25.2603 45.2148 25.4676 45.0421 25.6473 44.7519L26.2286 43.8133C26.2567 43.768 26.2927 43.7402 26.3368 43.7298C26.3718 43.7138 26.4165 43.7227 26.4709 43.7564L26.925 44.0564C27.0156 44.1126 27.0409 44.2035 27.0007 44.3292C26.9627 44.4311 26.8948 44.571 26.7972 44.7489C26.7052 44.9178 26.6131 45.0866 26.5211 45.2555C26.4256 45.4096 26.3442 45.5411 26.2768 45.6499C25.923 46.2212 25.5331 46.5569 25.1073 46.657C24.6724 46.7515 24.1647 46.6191 23.5843 46.2596L19.0411 43.4459C18.9504 43.3897 18.877 43.407 18.8208 43.4977L18.1469 44.5859C18.0851 44.6856 18.0043 44.7046 17.9046 44.6428L17.3333 44.289C17.2426 44.2328 17.2253 44.1594 17.2815 44.0687L17.9976 42.9125C18.0369 42.849 18.0203 42.7948 17.9477 42.7499L15.8776 41.2608C15.7653 41.1787 15.7373 41.0923 15.7934 41.0016L16.2146 40.3215C16.282 40.2127 16.3792 40.1976 16.5062 40.2762L18.6554 41.6073C18.7279 41.6522 18.7867 41.6384 18.8316 41.5659L19.8931 39.8519C19.9548 39.7522 20.0265 39.7276 20.1082 39.7781L20.6931 40.1404C20.7928 40.2022 20.8118 40.2829 20.75 40.3827L19.6801 42.1102Z" fill="black"/>
<path d="M26.5059 39.0126C26.9153 39.3376 27.3675 39.54 27.8625 39.6197C28.3559 39.6845 28.8321 39.6335 29.2913 39.4669C29.7571 39.2919 30.1524 38.9997 30.4774 38.5903C30.809 38.1726 31.0206 37.7345 31.1121 37.276C31.1953 36.8109 31.1543 36.3222 30.9891 35.8097C30.9822 35.7498 30.9854 35.7114 30.9987 35.6947C31.0102 35.663 31.0409 35.6329 31.0908 35.6044L31.7718 35.287C31.8732 35.245 31.9383 35.283 31.9671 35.4012C32.1222 35.892 32.199 36.3615 32.1973 36.8097C32.194 37.2428 32.1098 37.6662 31.9448 38.08C31.7797 38.4938 31.5314 38.9095 31.1998 39.3272C30.7091 39.9454 30.1327 40.3799 29.4706 40.6306C28.8085 40.8814 28.1133 40.9423 27.3848 40.8134C26.6563 40.6846 25.9579 40.3549 25.2896 39.8243C24.5627 39.2474 24.0498 38.6154 23.7506 37.9286C23.4498 37.2267 23.3463 36.5249 23.4403 35.8233C23.5409 35.1132 23.8266 34.4616 24.2975 33.8685C24.7816 33.2586 25.3364 32.8342 25.9619 32.5953C26.5873 32.3564 27.2544 32.3139 27.9629 32.4678C28.6715 32.6217 29.385 32.9838 30.1035 33.5541C30.162 33.6006 30.2139 33.6553 30.2591 33.7185C30.3109 33.7733 30.2971 33.8508 30.2175 33.951L26.4075 38.7506C26.3809 38.784 26.3786 38.8299 26.4005 38.8881C26.4206 38.9313 26.4558 38.9728 26.5059 39.0126ZM28.6727 34.4816C28.7457 34.3897 28.7837 34.3246 28.7869 34.2863C28.7818 34.2413 28.7416 34.189 28.6664 34.1293C28.3072 33.8441 27.91 33.6582 27.4749 33.5716C27.038 33.47 26.6075 33.4891 26.1832 33.6289C25.7656 33.7605 25.3943 34.0309 25.0693 34.4403C24.7112 34.8914 24.518 35.3577 24.4899 35.8393C24.4533 36.3142 24.5434 36.767 24.7599 37.1976C24.9764 37.6283 25.2726 37.9928 25.6486 38.2912L28.6727 34.4816Z" fill="black"/>
<path d="M34.7344 35.2622C34.6815 35.3149 34.6287 35.345 34.5759 35.3524C34.5231 35.3448 34.4741 35.3183 34.4289 35.2729L28.7383 29.5594C28.6404 29.4611 28.6331 29.3706 28.7162 29.2878L29.3737 28.6329C29.4569 28.5501 29.5398 28.5503 29.6226 28.6334L30.3565 29.3703C30.4017 29.4156 30.4394 29.4308 30.4696 29.4158C30.4998 29.4007 30.515 29.3555 30.5151 29.2801C30.4783 28.8501 30.4828 28.4692 30.5287 28.1374C30.5747 27.7906 30.662 27.4853 30.7908 27.2215C30.912 26.9503 31.0709 26.7168 31.2674 26.5211C31.5319 26.2576 31.7131 26.175 31.8109 26.2732L32.4884 26.9534C32.5637 27.029 32.5598 27.0931 32.4767 27.1457C32.4011 27.2059 32.3143 27.2774 32.216 27.3602C32.1254 27.4354 32.0309 27.522 31.9327 27.6198C31.7664 27.7854 31.6264 28.0001 31.5128 28.2639C31.3916 28.5201 31.3118 28.7952 31.2735 29.0893C31.2428 29.3758 31.2535 29.6512 31.3058 29.9153C31.3581 30.1793 31.4632 30.3907 31.6213 30.5495L35.3586 34.3018C35.4715 34.4152 35.4713 34.5283 35.3579 34.6412L34.7344 35.2622Z" fill="black"/>
<path d="M44.602 26.9826C44.4768 27.064 44.3764 27.0467 44.3008 26.9304L39.9021 20.1718C39.8265 20.0556 39.8378 19.9654 39.9362 19.9014L40.7408 19.3778C40.8391 19.3138 40.9203 19.331 40.9843 19.4293L41.4905 20.2071C41.5196 20.2518 41.546 20.2728 41.5697 20.2701C41.5934 20.2674 41.6159 20.2336 41.6373 20.1688C41.7811 19.7443 41.9258 19.3702 42.0713 19.0463C42.2201 18.7077 42.4023 18.4109 42.6182 18.1559C42.8282 17.892 43.0852 17.6611 43.3891 17.4633C44.0865 17.0094 44.7406 16.851 45.3515 16.9879C45.9713 17.119 46.4762 17.4841 46.866 18.083L50.1214 23.085C50.2145 23.228 50.194 23.3432 50.0599 23.4305L49.3089 23.9192C49.2464 23.9599 49.1929 23.9756 49.1487 23.9663C49.0986 23.9479 49.0561 23.912 49.0211 23.8583L45.9054 19.0709C45.6203 18.6329 45.2874 18.3659 44.9069 18.27C44.5204 18.1651 44.0858 18.2698 43.6031 18.584C43.3438 18.7527 43.1271 18.9574 42.9528 19.1981C42.7817 19.424 42.6322 19.6931 42.5045 20.0053C42.371 20.3085 42.2398 20.6739 42.1108 21.1015L45.4098 26.1705C45.4971 26.3046 45.4737 26.4153 45.3396 26.5026L44.602 26.9826Z" fill="black"/>
<path d="M55.7657 20.9398C55.0417 21.28 54.3226 21.4176 53.6084 21.3525C52.8993 21.2733 52.252 21.0118 51.6663 20.5681C51.0858 20.1102 50.614 19.4951 50.251 18.7228C49.8745 17.9216 49.7 17.1491 49.7276 16.4054C49.7604 15.6475 49.9725 14.9703 50.364 14.3738C50.7554 13.7773 51.3132 13.3089 52.0372 12.9687C52.7709 12.6238 53.4897 12.4982 54.1936 12.5916C54.9027 12.6709 55.5498 12.9443 56.1349 13.4119C56.7251 13.8652 57.2039 14.4829 57.5714 15.2648C57.9344 16.0371 58.102 16.7951 58.0744 17.5388C58.0422 18.2729 57.8304 18.9382 57.4389 19.5346C57.0571 20.1266 56.4994 20.595 55.7657 20.9398ZM55.3659 20.0139C55.8679 19.778 56.2408 19.4554 56.4845 19.0462C56.7238 18.6273 56.8285 18.1479 56.7987 17.608C56.774 17.0539 56.6119 16.4583 56.3125 15.8211C56.013 15.184 55.6602 14.6839 55.2539 14.3209C54.843 13.9483 54.4 13.7204 53.9249 13.6373C53.4497 13.5541 52.9611 13.6305 52.4592 13.8664C51.9668 14.0978 51.5962 14.4252 51.3473 14.8486C51.0984 15.272 50.9815 15.763 50.9966 16.3217C51.0167 16.8662 51.1765 17.457 51.476 18.0941C51.7709 18.7216 52.1237 19.2217 52.5346 19.5943C52.9551 19.9624 53.4077 20.1858 53.8925 20.2644C54.3728 20.3333 54.8639 20.2498 55.3659 20.0139Z" fill="black"/>
<path d="M69.0164 7.41916C69.0777 7.40079 69.1313 7.41255 69.1773 7.45446C69.2202 7.48614 69.2406 7.5357 69.2385 7.60313L69.1989 15.9998C69.1999 16.0775 69.1795 16.1393 69.1376 16.1852C69.1059 16.2281 69.0492 16.2618 68.9674 16.2863L68.2318 16.5068C68.0581 16.5588 67.9309 16.5245 67.8502 16.4039L64.3087 11.2182C64.2403 11.1385 64.1908 11.1033 64.1601 11.1125C64.1295 11.1216 64.1177 11.1753 64.1248 11.2734L64.1105 17.5245C64.1115 17.6022 64.091 17.664 64.0491 17.7099C64.0174 17.7528 63.9607 17.7865 63.879 17.811L63.0973 18.0452C62.9338 18.0942 62.8066 18.0599 62.7157 17.9424L57.9887 10.974C57.9601 10.9158 57.955 10.8616 57.9734 10.8115C57.9888 10.7513 58.0322 10.7104 58.1037 10.689L59.008 10.418C59.0693 10.3997 59.125 10.3997 59.175 10.4181C59.222 10.4263 59.2649 10.458 59.3037 10.5131L62.9141 15.9288C62.9754 16.0217 63.0264 16.0621 63.0673 16.0499C63.1051 16.0274 63.1291 15.959 63.1394 15.8445L63.1615 9.34052C63.1666 9.28331 63.1814 9.23989 63.206 9.21027C63.2377 9.16737 63.2791 9.13827 63.3301 9.12296L64.0505 8.90711C64.1118 8.88874 64.1675 8.88876 64.2175 8.90717C64.2645 8.91536 64.3023 8.94858 64.3309 9.00682L68.0026 14.4041C68.0638 14.497 68.1149 14.5374 68.1558 14.5252C68.1936 14.5027 68.2125 14.4358 68.2126 14.3244L68.1933 7.84952C68.2055 7.77903 68.2291 7.72744 68.2638 7.69476C68.2955 7.65186 68.342 7.62123 68.4033 7.60286L69.0164 7.41916Z" fill="black"/>
<path d="M78.3244 9.79465C78.3379 9.95407 78.2544 10.0415 78.0737 10.0568L76.8142 10.1637C76.6654 10.1763 76.5847 10.1083 76.5721 9.95947L76.4624 8.66811C76.4516 8.54057 76.494 8.47274 76.5897 8.46462L78.0564 8.3401C78.1521 8.33198 78.2048 8.38638 78.2148 8.50329L78.3244 9.79465Z" fill="black"/>
<path d="M89.2322 15.2594C89.1579 15.2523 89.101 15.2308 89.0616 15.1949C89.0338 15.1494 89.023 15.0947 89.029 15.031L89.7962 7.00361C89.8094 6.86557 89.8744 6.80213 89.9912 6.81329L90.915 6.90158C91.0318 6.91274 91.0846 6.97672 91.0734 7.09352L90.9745 8.12881C90.9684 8.19252 90.9808 8.2312 91.0116 8.24486C91.0425 8.25853 91.087 8.24135 91.1451 8.19333C91.4527 7.89055 91.7488 7.65097 92.0335 7.47459C92.3299 7.28861 92.6207 7.16102 92.9059 7.09184C93.1921 7.01204 93.4733 6.98534 93.7494 7.01172C94.121 7.04724 94.3002 7.13401 94.287 7.27205L94.1957 8.2277C94.1856 8.33388 94.1337 8.37179 94.0402 8.34142C93.9456 8.32167 93.8351 8.30039 93.7087 8.2776C93.593 8.25582 93.466 8.23833 93.328 8.22514C93.0944 8.20282 92.8398 8.23206 92.5642 8.31287C92.2896 8.38307 92.0269 8.49726 91.776 8.65545C91.5358 8.81465 91.3307 8.99864 91.1607 9.20742C90.9908 9.41619 90.8951 9.63207 90.8738 9.85506L90.37 15.127C90.3548 15.2863 90.2675 15.3583 90.1083 15.3431L89.2322 15.2594Z" fill="black"/>
<path d="M97.752 12.7586C97.6422 13.2696 97.6612 13.7647 97.8092 14.2438C97.9698 14.7148 98.2266 15.1191 98.5795 15.4568C98.9428 15.7967 99.38 16.0216 99.891 16.1315C100.412 16.2435 100.899 16.239 101.35 16.1179C101.804 15.9863 102.224 15.7329 102.61 15.3576C102.661 15.3249 102.697 15.3108 102.718 15.3152C102.751 15.3115 102.792 15.3257 102.839 15.3578L103.426 15.8275C103.508 15.8998 103.503 15.9751 103.41 16.0532C103.039 16.4098 102.652 16.6867 102.25 16.8839C101.86 17.0729 101.443 17.1851 100.999 17.2206C100.555 17.2561 100.072 17.2178 99.5507 17.1057C98.779 16.9398 98.134 16.6157 97.6158 16.1334C97.0976 15.651 96.7348 15.0548 96.5274 14.3447C96.32 13.6346 96.3059 12.8624 96.4853 12.0281C96.6803 11.1208 97.0193 10.3809 97.5025 9.80831C97.9983 9.22753 98.5815 8.82374 99.2521 8.59695C99.9332 8.37239 100.644 8.33969 101.384 8.49884C102.146 8.66247 102.772 8.97167 103.263 9.42643C103.755 9.88118 104.089 10.4603 104.265 11.1636C104.441 11.867 104.432 12.6671 104.24 13.564C104.224 13.637 104.198 13.7077 104.161 13.7763C104.135 13.847 104.06 13.8689 103.934 13.8421L97.9433 12.5543C97.9015 12.5453 97.8594 12.5635 97.8169 12.6089C97.7871 12.6462 97.7655 12.6961 97.752 12.7586ZM102.774 12.6925C102.889 12.7172 102.964 12.7225 103 12.7083C103.038 12.6838 103.067 12.6246 103.087 12.5307C103.183 12.0823 103.174 11.6438 103.059 11.2154C102.956 10.7788 102.748 10.4013 102.435 10.083C102.132 9.76692 101.725 9.55396 101.214 9.44413C100.651 9.32308 100.147 9.35666 99.703 9.54486C99.2611 9.72264 98.8951 10.004 98.6051 10.389C98.315 10.774 98.1196 11.2011 98.0187 11.6704L102.774 12.6925Z" fill="black"/>
<path d="M114.58 12.8114C114.68 12.8474 114.744 12.8927 114.769 12.9472C114.805 13.0054 114.809 13.0746 114.78 13.1549L114.591 13.6821C114.559 13.7725 114.508 13.8338 114.44 13.866C114.382 13.9018 114.299 13.8949 114.193 13.8453C114.032 13.7877 113.888 13.7474 113.76 13.7243C113.632 13.7012 113.499 13.6932 113.361 13.7002C113.087 13.7043 112.946 13.7838 112.935 13.9387C112.946 14.0672 112.953 14.2225 112.955 14.4048C112.962 14.577 112.918 14.7936 112.824 15.0547C112.666 15.4965 112.405 15.8618 112.041 16.1506C111.68 16.4294 111.215 16.591 110.643 16.6357C110.082 16.6839 109.43 16.5749 108.687 16.3086C108.175 16.1251 107.762 16.0113 107.45 15.9672C107.137 15.9231 106.902 15.9297 106.746 15.987C106.589 16.0442 106.491 16.128 106.452 16.2385C106.394 16.3992 106.458 16.5524 106.644 16.6983C106.84 16.8477 107.173 17.0238 107.644 17.2267L109.55 18.0283C110.415 18.3951 110.987 18.8381 111.266 19.3571C111.544 19.8762 111.576 20.437 111.36 21.0395C111.09 21.7926 110.541 22.2645 109.714 22.4552C108.893 22.6596 107.865 22.5405 106.63 22.0979C105.354 21.641 104.447 21.1062 103.907 20.4936C103.374 19.8947 103.23 19.2538 103.474 18.571C103.6 18.2195 103.834 17.9464 104.176 17.7516C104.528 17.5603 104.969 17.4352 105.5 17.3762C105.629 17.3656 105.648 17.3104 105.56 17.2105C105.375 17.031 105.247 16.8493 105.177 16.6655C105.11 16.4717 105.113 16.2744 105.185 16.0736C105.235 15.933 105.331 15.8086 105.472 15.7004C105.613 15.5922 105.79 15.5085 106.004 15.4491C106.228 15.3934 106.481 15.3653 106.765 15.3649C106.832 15.3664 106.871 15.3521 106.882 15.322C106.893 15.2918 106.88 15.2477 106.845 15.1895C106.482 14.8103 106.254 14.4172 106.162 14.0103C106.07 13.6034 106.107 13.169 106.272 12.707C106.553 11.9238 107.071 11.4124 107.825 11.1728C108.579 10.9332 109.499 11.0077 110.583 11.3963C111.105 11.5834 111.526 11.8019 111.844 12.052C112.172 12.3056 112.424 12.5828 112.6 12.8836C112.642 12.9554 112.688 13.0003 112.738 13.0183C112.789 13.0363 112.848 13.0292 112.916 12.997C113.076 12.9297 113.249 12.8728 113.436 12.8264C113.626 12.7699 113.819 12.7371 114.015 12.728C114.221 12.7224 114.409 12.7502 114.58 12.8114ZM108.973 15.5103C109.676 15.7622 110.249 15.8087 110.691 15.6498C111.136 15.481 111.453 15.1355 111.64 14.6133C111.831 14.0811 111.809 13.6032 111.576 13.1796C111.346 12.746 110.88 12.4033 110.177 12.1514C109.504 11.9104 108.926 11.8789 108.443 12.0571C107.973 12.2288 107.643 12.5807 107.453 13.1129C107.266 13.6351 107.301 14.1066 107.558 14.5273C107.829 14.9416 108.3 15.2692 108.973 15.5103ZM106.584 18.0027C106.407 17.9279 106.187 17.9111 105.923 17.9525C105.662 17.9838 105.41 18.0692 105.168 18.2089C104.925 18.3486 104.755 18.554 104.658 18.8251C104.547 19.1364 104.557 19.4403 104.688 19.7367C104.827 20.0468 105.092 20.3345 105.484 20.5997C105.883 20.8785 106.403 21.133 107.046 21.3633C107.879 21.6619 108.557 21.763 109.079 21.6667C109.597 21.5804 109.948 21.2812 110.131 20.7691C110.25 20.4377 110.232 20.1252 110.076 19.8316C109.931 19.5416 109.587 19.2826 109.046 19.0546L106.584 18.0027Z" fill="black"/>
<path d="M114.632 22.3144C114.585 22.4102 114.533 22.4679 114.476 22.4875C114.433 22.5021 114.359 22.4837 114.254 22.4321L113.521 22.0733C113.434 22.0311 113.384 21.9886 113.369 21.9458C113.355 21.903 113.366 21.8433 113.404 21.7666L116.935 14.5525C117.001 14.4184 117.091 14.3795 117.206 14.4358L118.082 14.8649C118.188 14.9165 118.21 15.0045 118.149 15.1291L114.632 22.3144ZM119.1 13.3321C119.011 13.5142 118.88 13.563 118.708 13.4785L117.874 13.0705C117.788 13.0283 117.74 12.981 117.73 12.9287C117.724 12.8667 117.741 12.7974 117.778 12.7207L118.369 11.5136C118.444 11.3603 118.549 11.3165 118.683 11.3821L119.588 11.8253C119.722 11.891 119.754 11.9956 119.684 12.1394L119.1 13.3321Z" fill="black"/>
<path d="M126.093 21.7536C126.082 21.3691 125.968 20.9889 125.751 20.613C125.534 20.2371 125.199 19.9072 124.748 19.6234C124.26 19.3169 123.788 19.1654 123.333 19.1688C122.886 19.1779 122.552 19.3585 122.331 19.7107C122.212 19.9004 122.17 20.1264 122.207 20.3888C122.249 20.6422 122.446 20.9802 122.798 21.4028L124.195 22.9988C124.71 23.562 125.001 24.0913 125.068 24.5867C125.144 25.0878 125.048 25.5506 124.781 25.975C124.515 26.3995 124.155 26.6903 123.704 26.8475C123.252 27.0047 122.749 27.0345 122.193 26.9371C121.642 26.8305 121.087 26.6013 120.527 26.2494C119.814 25.8011 119.278 25.2695 118.922 24.6546C118.57 24.0308 118.415 23.4356 118.456 22.8693C118.457 22.8071 118.469 22.7579 118.492 22.7218C118.515 22.6857 118.557 22.6683 118.619 22.6695L119.335 22.7035C119.397 22.7048 119.444 22.7213 119.474 22.7531C119.51 22.7758 119.529 22.8063 119.53 22.8448C119.536 23.1761 119.584 23.49 119.675 23.7864C119.775 24.0886 119.934 24.3773 120.151 24.6526C120.378 24.9335 120.681 25.1932 121.06 25.4316C121.409 25.6382 121.752 25.7844 122.088 25.87C122.425 25.9556 122.729 25.9637 122.999 25.8943C123.275 25.8158 123.487 25.6592 123.634 25.4244C123.788 25.1806 123.819 24.9104 123.728 24.6139C123.643 24.3084 123.399 23.9347 122.996 23.4928L121.848 22.223C121.284 21.6167 120.959 21.0721 120.872 20.589C120.794 20.1117 120.881 19.6625 121.133 19.2414C121.405 18.8079 121.758 18.5068 122.192 18.3383C122.631 18.1608 123.115 18.1122 123.644 18.1927C124.182 18.2788 124.722 18.4921 125.264 18.8327C125.869 19.213 126.332 19.6681 126.654 20.198C126.991 20.7246 127.162 21.2542 127.168 21.7867C127.172 21.8399 127.163 21.8845 127.14 21.9207C127.123 21.9478 127.088 21.9635 127.035 21.9679L126.27 21.9219C126.223 21.9173 126.181 21.9036 126.145 21.8809C126.123 21.8548 126.106 21.8124 126.093 21.7536Z" fill="black"/>
<path d="M131.887 25.1847C131.821 25.1312 131.761 25.1377 131.707 25.2042L128.528 29.1559C128.213 29.5465 128.069 29.8618 128.095 30.1018C128.121 30.3417 128.267 30.5687 128.533 30.7826L129.393 31.4747C129.435 31.5081 129.458 31.5473 129.463 31.5923C129.474 31.629 129.46 31.6723 129.42 31.7222L129.067 32.136C129 32.2191 128.906 32.233 128.787 32.1777C128.69 32.1274 128.56 32.0429 128.395 31.9242C128.239 31.8122 128.082 31.7001 127.926 31.5881C127.785 31.4744 127.664 31.3774 127.565 31.2972C127.041 30.8759 126.756 30.4479 126.709 30.0129C126.668 29.5697 126.862 29.0821 127.29 28.5503L130.64 24.3866C130.707 24.3035 130.699 24.2285 130.616 24.1616L129.618 23.3593C129.527 23.2857 129.518 23.2032 129.591 23.1118L130.013 22.5882C130.08 22.5051 130.155 22.497 130.238 22.5639L131.297 23.4164C131.355 23.4632 131.411 23.4534 131.465 23.3869L133.197 21.5151C133.292 21.4138 133.381 21.3965 133.464 21.4634L134.087 21.9649C134.187 22.0451 134.19 22.1434 134.097 22.2598L132.512 24.2294C132.458 24.2959 132.465 24.3559 132.531 24.4094L134.102 25.6731C134.194 25.7467 134.209 25.8208 134.149 25.8956L133.718 26.4317C133.644 26.5231 133.562 26.532 133.47 26.4585L131.887 25.1847Z" fill="black"/>
<path d="M134.124 32.339C133.751 32.7054 133.495 33.1293 133.355 33.6109C133.23 34.0925 133.222 34.5714 133.331 35.0476C133.448 35.5313 133.689 35.9595 134.056 36.3323C134.429 36.7126 134.838 36.9763 135.282 37.1235C135.733 37.2631 136.224 37.2824 136.752 37.1813C136.813 37.1818 136.85 37.1897 136.865 37.2049C136.895 37.2203 136.921 37.2544 136.944 37.3074L137.175 38.0222C137.204 38.128 137.159 38.188 137.038 38.202C136.532 38.2958 136.056 38.3143 135.612 38.2577C135.182 38.2012 134.772 38.0657 134.382 37.8512C133.992 37.6366 133.609 37.3392 133.236 36.9588C132.682 36.3959 132.322 35.7706 132.154 35.0827C131.987 34.3949 132.011 33.6974 132.229 32.9902C132.446 32.2831 132.859 31.6304 133.467 31.0322C134.129 30.3817 134.819 29.9501 135.538 29.7375C136.271 29.5251 136.98 29.5085 137.665 29.6879C138.358 29.8749 138.969 30.2384 139.5 30.7785C140.046 31.3338 140.399 31.9364 140.559 32.5865C140.72 33.2366 140.68 33.9037 140.44 34.5881C140.201 35.2724 139.754 35.9361 139.1 36.5792C139.046 36.6315 138.986 36.6763 138.917 36.7134C138.857 36.7581 138.781 36.7348 138.692 36.6436L134.396 32.2734C134.366 32.243 134.321 32.2351 134.26 32.2496C134.215 32.2643 134.169 32.2941 134.124 32.339ZM138.355 35.0454C138.437 35.1291 138.497 35.1748 138.535 35.1827C138.58 35.1831 138.637 35.1496 138.705 35.0823C139.032 34.7608 139.265 34.3894 139.405 33.9682C139.559 33.5472 139.593 33.1175 139.506 32.6793C139.427 32.2487 139.204 31.847 138.838 31.4743C138.434 31.0635 137.995 30.8146 137.521 30.7275C137.054 30.633 136.593 30.6668 136.139 30.8288C135.685 30.9909 135.287 31.2402 134.945 31.5766L138.355 35.0454Z" fill="black"/>
<path d="M136.836 40.9655C136.79 40.9065 136.767 40.8503 136.766 40.797C136.78 40.7456 136.812 40.7002 136.863 40.661L143.232 35.7144C143.341 35.6294 143.432 35.6332 143.504 35.7258L144.073 36.4587C144.145 36.5514 144.135 36.6337 144.042 36.7057L143.221 37.3436C143.17 37.3829 143.15 37.4184 143.162 37.4502C143.173 37.4821 143.216 37.5027 143.291 37.5121C143.722 37.5283 144.099 37.5795 144.423 37.6658C144.762 37.754 145.054 37.8781 145.3 38.0383C145.554 38.1918 145.767 38.3782 145.937 38.5972C146.166 38.892 146.225 39.082 146.116 39.167L145.358 39.7559C145.273 39.8214 145.21 39.8096 145.168 39.7207C145.118 39.6384 145.058 39.5434 144.987 39.4357C144.924 39.3365 144.85 39.2322 144.765 39.1226C144.621 38.9373 144.425 38.7721 144.177 38.6269C143.937 38.4752 143.674 38.3623 143.387 38.2882C143.106 38.2225 142.832 38.1994 142.563 38.2188C142.295 38.2383 142.072 38.3167 141.895 38.4542L137.713 41.7028C137.586 41.8009 137.474 41.7868 137.376 41.6605L136.836 40.9655Z" fill="black"/>
<path d="M143.842 51.7745C143.777 51.6403 143.806 51.5428 143.931 51.482L151.178 47.9458C151.303 47.885 151.391 47.9074 151.443 48.0128L151.864 48.8756C151.915 48.981 151.888 49.0595 151.783 49.1109L150.948 49.5179C150.901 49.5413 150.876 49.5649 150.876 49.5887C150.876 49.6126 150.907 49.6391 150.968 49.6683C151.372 49.8631 151.726 50.0526 152.029 50.2368C152.347 50.4259 152.619 50.6432 152.846 50.8887C153.082 51.1296 153.28 51.4129 153.439 51.7389C153.803 52.4866 153.88 53.1552 153.67 53.7447C153.463 54.3438 153.039 54.8 152.397 55.1134L147.033 57.7305C146.88 57.8053 146.768 57.7708 146.698 57.627L146.305 56.8218C146.272 56.7547 146.263 56.6997 146.278 56.6569C146.302 56.6094 146.343 56.5717 146.401 56.5436L151.534 54.0388C152.004 53.8097 152.31 53.5121 152.452 53.1461C152.603 52.7755 152.553 52.3314 152.3 51.8137C152.164 51.5357 151.988 51.2954 151.77 51.093C151.567 50.8954 151.319 50.7141 151.024 50.549C150.74 50.3793 150.393 50.2042 149.985 50.0237L144.549 52.6758C144.405 52.746 144.298 52.7092 144.228 52.5654L143.842 51.7745Z" fill="black"/>
<path d="M148.47 63.5953C148.221 62.8349 148.173 62.1044 148.325 61.4036C148.49 60.7096 148.829 60.0993 149.342 59.5725C149.867 59.0525 150.536 58.6598 151.347 58.3943C152.188 58.1189 152.976 58.0406 153.711 58.1592C154.459 58.2847 155.105 58.5783 155.649 59.04C156.193 59.5017 156.589 60.1127 156.838 60.8731C157.09 61.6435 157.127 62.3723 156.948 63.0594C156.782 63.7534 156.431 64.362 155.895 64.8853C155.373 65.4155 154.701 65.8149 153.88 66.0837C153.069 66.3491 152.296 66.4225 151.562 66.3038C150.837 66.1818 150.203 65.89 149.659 65.4283C149.118 64.9767 148.722 64.3657 148.47 63.5953ZM149.438 63.3121C149.61 63.8393 149.885 64.2489 150.261 64.541C150.647 64.8298 151.11 64.9926 151.65 65.0292C152.202 65.0727 152.813 64.985 153.483 64.766C154.152 64.547 154.691 64.2581 155.101 63.8994C155.522 63.5374 155.802 63.1257 155.943 62.6644C156.084 62.203 156.068 61.7088 155.895 61.1816C155.726 60.6646 155.447 60.2566 155.057 59.9577C154.667 59.6587 154.194 59.4824 153.638 59.4288C153.095 59.382 152.489 59.4681 151.82 59.6871C151.161 59.9028 150.622 60.1916 150.201 60.5536C149.785 60.9258 149.507 61.3476 149.37 61.8191C149.242 62.2873 149.265 62.785 149.438 63.3121Z" fill="black"/>
<path d="M160.262 78.4049C160.273 78.468 160.255 78.5198 160.208 78.5602C160.171 78.5989 160.119 78.6131 160.052 78.6028L151.724 77.5332C151.647 77.5247 151.588 77.4968 151.548 77.4496C151.509 77.4128 151.482 77.3524 151.468 77.2683L151.34 76.5111C151.309 76.3323 151.359 76.2103 151.489 76.1451L157.07 73.2667C157.157 73.2085 157.198 73.1637 157.193 73.1321C157.187 73.1006 157.136 73.0823 157.037 73.0774L150.835 72.2961C150.758 72.2875 150.699 72.2597 150.659 72.2124C150.62 72.1757 150.594 72.1153 150.579 72.0312L150.443 71.2267C150.414 71.0584 150.464 70.9364 150.592 70.8606L158.087 67.0243C158.149 67.0031 158.203 67.0047 158.251 67.0291C158.309 67.0517 158.344 67.0999 158.356 67.1735L158.514 68.1042C158.525 68.1673 158.518 68.2225 158.494 68.27C158.48 68.3156 158.443 68.3543 158.383 68.386L152.566 71.3046C152.466 71.354 152.42 71.3997 152.427 71.4418C152.444 71.482 152.509 71.5143 152.622 71.5385L159.074 72.3585C159.13 72.3706 159.171 72.3907 159.198 72.4186C159.236 72.4553 159.26 72.5 159.269 72.5526L159.395 73.294C159.406 73.3571 159.399 73.4123 159.374 73.4597C159.36 73.5054 159.323 73.5388 159.262 73.56L153.455 76.5417C153.355 76.5911 153.308 76.6368 153.316 76.6789C153.333 76.7192 153.397 76.7461 153.508 76.7598L159.936 77.5352C160.005 77.556 160.053 77.5857 160.081 77.6242C160.12 77.6609 160.145 77.7108 160.155 77.7739L160.262 78.4049Z" fill="black"/>
<path d="M156.763 87.351C156.603 87.3449 156.526 87.2512 156.533 87.07L156.582 85.8069C156.587 85.6577 156.665 85.586 156.814 85.5917L158.109 85.6413C158.237 85.6463 158.299 85.6967 158.295 85.7926L158.239 87.2635C158.235 87.3594 158.175 87.4052 158.058 87.4007L156.763 87.351Z" fill="black"/>
<path d="M150.001 97.5059C150.017 97.433 150.045 97.3792 150.086 97.3445C150.134 97.3225 150.19 97.3184 150.252 97.3323L158.125 99.0786C158.26 99.1086 158.315 99.1809 158.29 99.2955L158.089 100.201C158.063 100.316 157.993 100.361 157.879 100.335L156.864 100.11C156.801 100.096 156.761 100.104 156.744 100.133C156.726 100.161 156.738 100.208 156.779 100.271C157.041 100.614 157.243 100.937 157.383 101.241C157.531 101.558 157.622 101.862 157.656 102.154C157.7 102.448 157.692 102.73 157.632 103.001C157.551 103.365 157.443 103.533 157.307 103.503L156.37 103.295C156.266 103.272 156.235 103.215 156.276 103.126C156.308 103.035 156.342 102.928 156.38 102.805C156.416 102.693 156.449 102.569 156.479 102.434C156.53 102.205 156.532 101.948 156.486 101.665C156.45 101.384 156.369 101.109 156.243 100.841C156.114 100.583 155.957 100.357 155.77 100.162C155.584 99.9681 155.381 99.8467 155.163 99.7982L149.992 98.6513C149.836 98.6166 149.775 98.5212 149.81 98.365L150.001 97.5059Z" fill="black"/>
<path d="M151.437 106.268C150.943 106.097 150.45 106.055 149.956 106.143C149.469 106.244 149.036 106.45 148.658 106.758C148.276 107.077 147.999 107.484 147.827 107.977C147.652 108.481 147.597 108.964 147.662 109.427C147.737 109.894 147.937 110.342 148.262 110.771C148.288 110.825 148.297 110.863 148.29 110.883C148.29 110.916 148.271 110.955 148.233 110.998L147.695 111.523C147.613 111.596 147.539 111.581 147.473 111.479C147.165 111.067 146.937 110.649 146.791 110.226C146.651 109.816 146.591 109.388 146.61 108.943C146.63 108.498 146.727 108.024 146.902 107.52C147.161 106.774 147.562 106.174 148.105 105.719C148.647 105.264 149.283 104.977 150.013 104.858C150.743 104.74 151.512 104.82 152.317 105.101C153.194 105.406 153.887 105.833 154.396 106.383C154.911 106.946 155.24 107.574 155.383 108.268C155.523 108.971 155.468 109.681 155.219 110.396C154.963 111.131 154.579 111.715 154.068 112.147C153.556 112.579 152.941 112.839 152.221 112.927C151.501 113.016 150.708 112.909 149.842 112.608C149.771 112.584 149.704 112.549 149.641 112.504C149.574 112.47 149.561 112.392 149.603 112.271L151.616 106.483C151.63 106.443 151.618 106.399 151.578 106.351C151.544 106.317 151.497 106.289 151.437 106.268ZM150.886 111.26C150.848 111.371 150.833 111.445 150.843 111.483C150.863 111.523 150.918 111.559 151.009 111.591C151.442 111.742 151.878 111.786 152.317 111.724C152.763 111.676 153.164 111.516 153.518 111.244C153.869 110.982 154.13 110.604 154.302 110.111C154.491 109.567 154.519 109.063 154.387 108.599C154.265 108.138 154.031 107.741 153.684 107.406C153.338 107.071 152.938 106.824 152.484 106.666L150.886 111.26Z" fill="black"/>
<path d="M149.32 122.963C149.272 123.058 149.219 123.115 149.162 123.134C149.1 123.162 149.031 123.157 148.954 123.119L148.454 122.867C148.369 122.823 148.314 122.766 148.29 122.694C148.262 122.632 148.279 122.551 148.341 122.451C148.418 122.299 148.476 122.161 148.514 122.037C148.553 121.913 148.577 121.782 148.587 121.644C148.617 121.372 148.555 121.221 148.403 121.192C148.274 121.187 148.119 121.174 147.938 121.155C147.766 121.14 147.557 121.07 147.309 120.945C146.89 120.734 146.559 120.43 146.317 120.033C146.085 119.641 145.982 119.159 146.008 118.586C146.029 118.024 146.217 117.39 146.572 116.685C146.817 116.199 146.981 115.804 147.063 115.499C147.145 115.194 147.167 114.96 147.13 114.798C147.092 114.636 147.021 114.528 146.916 114.475C146.764 114.398 146.604 114.443 146.436 114.609C146.264 114.785 146.048 115.095 145.789 115.537L144.76 117.33C144.289 118.144 143.78 118.658 143.23 118.87C142.681 119.083 142.121 119.045 141.549 118.757C140.835 118.397 140.434 117.795 140.346 116.95C140.244 116.11 140.488 115.104 141.079 113.933C141.689 112.723 142.331 111.888 143.005 111.428C143.665 110.972 144.319 110.908 144.967 111.234C145.3 111.402 145.542 111.668 145.694 112.031C145.84 112.404 145.91 112.857 145.904 113.391C145.898 113.52 145.951 113.546 146.061 113.47C146.262 113.309 146.458 113.205 146.649 113.158C146.849 113.115 147.045 113.142 147.235 113.238C147.368 113.306 147.48 113.416 147.57 113.569C147.66 113.722 147.722 113.908 147.754 114.127C147.782 114.356 147.779 114.612 147.745 114.893C147.735 114.96 147.744 115 147.773 115.015C147.801 115.029 147.847 115.022 147.909 114.994C148.33 114.68 148.748 114.503 149.163 114.461C149.578 114.42 150.005 114.51 150.443 114.731C151.186 115.105 151.63 115.682 151.775 116.46C151.92 117.238 151.733 118.141 151.215 119.17C150.965 119.665 150.697 120.055 150.409 120.34C150.117 120.635 149.811 120.851 149.491 120.988C149.415 121.021 149.365 121.062 149.341 121.109C149.316 121.157 149.316 121.217 149.34 121.288C149.387 121.455 149.422 121.634 149.445 121.825C149.478 122.021 149.487 122.217 149.472 122.412C149.452 122.617 149.402 122.801 149.32 122.963ZM147.329 117.067C146.993 117.734 146.877 118.296 146.98 118.754C147.093 119.217 147.397 119.574 147.892 119.824C148.397 120.078 148.874 120.116 149.323 119.936C149.782 119.761 150.179 119.34 150.515 118.673C150.837 118.035 150.939 117.466 150.822 116.964C150.709 116.477 150.4 116.107 149.895 115.852C149.4 115.602 148.928 115.579 148.479 115.783C148.034 116.001 147.651 116.429 147.329 117.067ZM145.149 114.39C145.245 114.224 145.289 114.007 145.28 113.74C145.281 113.477 145.227 113.217 145.118 112.959C145.009 112.701 144.826 112.507 144.569 112.378C144.274 112.229 143.971 112.202 143.661 112.296C143.336 112.395 143.018 112.623 142.707 112.98C142.381 113.341 142.064 113.827 141.757 114.436C141.358 115.227 141.175 115.887 141.207 116.416C141.229 116.941 141.482 117.326 141.968 117.571C142.282 117.729 142.595 117.75 142.905 117.631C143.211 117.523 143.51 117.214 143.803 116.704L145.149 114.39Z" fill="black"/>
<path d="M139.882 121.848C139.793 121.79 139.742 121.731 139.73 121.672C139.72 121.628 139.748 121.556 139.812 121.458L140.258 120.775C140.31 120.694 140.359 120.649 140.403 120.64C140.447 120.631 140.505 120.65 140.577 120.696L147.303 125.086C147.428 125.168 147.456 125.262 147.386 125.369L146.852 126.187C146.788 126.285 146.698 126.296 146.582 126.22L139.882 121.848ZM148.248 127.384C148.079 127.274 148.046 127.138 148.151 126.977L148.658 126.2C148.711 126.12 148.764 126.078 148.817 126.074C148.879 126.076 148.946 126.101 149.017 126.148L150.143 126.882C150.286 126.975 150.316 127.085 150.235 127.21L149.684 128.054C149.602 128.179 149.495 128.198 149.361 128.11L148.248 127.384Z" fill="black"/>
<path d="M139.033 133.291C139.415 133.328 139.807 133.261 140.206 133.092C140.606 132.922 140.975 132.631 141.312 132.218C141.676 131.771 141.884 131.322 141.936 130.869C141.982 130.425 141.844 130.071 141.522 129.808C141.348 129.667 141.129 129.598 140.864 129.602C140.607 129.613 140.248 129.767 139.785 130.064L138.03 131.255C137.407 131.697 136.846 131.921 136.347 131.926C135.84 131.94 135.392 131.788 135.004 131.471C134.615 131.155 134.371 130.763 134.27 130.295C134.17 129.828 134.202 129.324 134.367 128.784C134.54 128.251 134.836 127.728 135.254 127.216C135.786 126.563 136.379 126.097 137.033 125.818C137.696 125.546 138.305 125.465 138.862 125.575C138.924 125.584 138.971 125.602 139.004 125.629C139.037 125.656 139.049 125.7 139.041 125.762L138.919 126.468C138.91 126.529 138.888 126.573 138.853 126.6C138.826 126.633 138.793 126.647 138.755 126.644C138.425 126.609 138.108 126.618 137.803 126.672C137.49 126.734 137.184 126.856 136.885 127.038C136.578 127.229 136.283 127.498 136 127.845C135.752 128.166 135.565 128.488 135.439 128.812C135.312 129.135 135.267 129.436 135.303 129.713C135.347 129.996 135.476 130.226 135.691 130.401C135.914 130.583 136.179 130.647 136.484 130.593C136.798 130.546 137.198 130.35 137.686 130.005L139.088 129.021C139.758 128.536 140.339 128.279 140.829 128.252C141.312 128.234 141.747 128.375 142.134 128.677C142.531 129 142.787 129.388 142.901 129.839C143.023 130.296 143.012 130.782 142.867 131.298C142.716 131.821 142.438 132.331 142.033 132.827C141.581 133.38 141.073 133.785 140.507 134.039C139.944 134.309 139.397 134.414 138.868 134.354C138.814 134.352 138.771 134.337 138.738 134.31C138.713 134.29 138.702 134.253 138.704 134.2L138.844 133.446C138.854 133.4 138.873 133.36 138.9 133.327C138.928 133.309 138.973 133.297 139.033 133.291Z" fill="black"/>
<path d="M134.916 138.621C134.978 138.561 134.978 138.501 134.919 138.44L131.387 134.799C131.038 134.439 130.743 134.258 130.502 134.254C130.26 134.25 130.017 134.367 129.772 134.605L128.98 135.374C128.942 135.411 128.9 135.429 128.855 135.428C128.817 135.435 128.776 135.416 128.731 135.37L128.364 134.968C128.289 134.892 128.287 134.798 128.357 134.685C128.418 134.596 128.518 134.477 128.656 134.328C128.787 134.187 128.917 134.045 129.047 133.904C129.177 133.778 129.288 133.67 129.38 133.581C129.863 133.113 130.323 132.882 130.76 132.889C131.205 132.903 131.665 133.155 132.14 133.645L135.861 137.481C135.936 137.557 136.011 137.558 136.088 137.484L137.006 136.593C137.091 136.511 137.173 136.512 137.255 136.597L137.723 137.079C137.797 137.156 137.796 137.231 137.72 137.305L136.744 138.252C136.69 138.304 136.693 138.361 136.752 138.422L138.397 140.371C138.486 140.477 138.493 140.568 138.416 140.642L137.842 141.199C137.75 141.289 137.652 141.28 137.548 141.172L135.788 139.358C135.728 139.297 135.668 139.296 135.607 139.355L134.16 140.759C134.076 140.841 134 140.847 133.933 140.778L133.454 140.284C133.372 140.2 133.374 140.117 133.458 140.035L134.916 138.621Z" fill="black"/>
<path d="M127.542 139.962C127.224 139.548 126.835 139.241 126.374 139.043C125.911 138.86 125.437 138.794 124.951 138.843C124.457 138.9 124.002 139.087 123.587 139.405C123.164 139.729 122.852 140.102 122.651 140.525C122.457 140.956 122.378 141.44 122.413 141.977C122.406 142.037 122.393 142.073 122.376 142.086C122.357 142.114 122.32 142.136 122.265 142.151L121.527 142.293C121.418 142.309 121.365 142.257 121.365 142.135C121.335 141.621 121.374 141.147 121.485 140.713C121.594 140.294 121.779 139.903 122.04 139.542C122.3 139.181 122.642 138.838 123.066 138.514C123.692 138.034 124.357 137.753 125.06 137.671C125.764 137.589 126.453 137.699 127.128 138.002C127.803 138.304 128.4 138.794 128.919 139.471C129.484 140.208 129.827 140.946 129.95 141.685C130.071 142.439 130 143.145 129.738 143.802C129.468 144.467 129.032 145.029 128.431 145.49C127.813 145.963 127.171 146.24 126.506 146.319C125.842 146.398 125.184 146.277 124.535 145.955C123.885 145.633 123.281 145.108 122.723 144.38C122.678 144.321 122.641 144.255 122.612 144.183C122.575 144.117 122.608 144.045 122.709 143.968L127.573 140.24C127.607 140.215 127.621 140.171 127.614 140.109C127.605 140.062 127.581 140.013 127.542 139.962ZM124.337 143.829C124.244 143.901 124.191 143.954 124.178 143.991C124.172 144.036 124.199 144.096 124.257 144.172C124.536 144.537 124.876 144.814 125.277 145.004C125.676 145.209 126.098 145.295 126.544 145.263C126.981 145.237 127.407 145.065 127.822 144.747C128.279 144.397 128.58 143.991 128.724 143.531C128.875 143.079 128.898 142.618 128.793 142.148C128.688 141.678 128.49 141.252 128.198 140.871L124.337 143.829Z" fill="black"/>
<path d="M118.648 141.596C118.712 141.558 118.77 141.541 118.823 141.547C118.873 141.567 118.914 141.605 118.946 141.66L123.074 148.587C123.145 148.706 123.13 148.796 123.029 148.856L122.232 149.331C122.131 149.391 122.051 149.371 121.991 149.27L121.459 148.377C121.426 148.322 121.393 148.298 121.36 148.305C121.327 148.312 121.301 148.352 121.283 148.425C121.214 148.851 121.117 149.22 120.991 149.53C120.862 149.856 120.703 150.13 120.514 150.355C120.33 150.588 120.12 150.776 119.881 150.918C119.561 151.109 119.365 151.145 119.294 151.026L118.802 150.201C118.748 150.11 118.767 150.049 118.861 150.018C118.948 149.978 119.05 149.93 119.166 149.873C119.272 149.822 119.385 149.761 119.504 149.69C119.705 149.57 119.893 149.396 120.068 149.168C120.248 148.949 120.392 148.702 120.501 148.426C120.6 148.155 120.657 147.886 120.671 147.617C120.684 147.348 120.634 147.117 120.519 146.925L117.808 142.375C117.726 142.238 117.754 142.128 117.892 142.046L118.648 141.596Z" fill="black"/>
<path d="M70.1675 155.68C70.1933 155.522 70.2956 155.458 70.4746 155.487L71.7222 155.69C71.8695 155.714 71.9313 155.799 71.9073 155.947L71.6991 157.226C71.6785 157.352 71.6209 157.408 71.5261 157.392L70.0732 157.156C69.9785 157.141 69.9405 157.075 69.9594 156.959L70.1675 155.68Z" fill="black"/>
</svg>
