<svg width="23" height="23" viewBox="0 0 23 23" fill="none" xmlns="http://www.w3.org/2000/svg">
<g clip-path="url(#clip0_52_490)">
<path d="M11.038 22.0759C17.1341 22.0759 22.0759 17.1341 22.0759 11.038C22.0759 4.94187 17.1341 0 11.038 0C4.94187 0 0 4.94187 0 11.038C0 17.1341 4.94187 22.0759 11.038 22.0759Z" fill="black"/>
<path d="M9.01805 16.8606C13.9134 16.8606 16.5901 12.8041 16.5901 9.28855C16.5901 9.17265 16.5901 9.05675 16.5846 8.94637C17.1034 8.57108 17.5559 8.10197 17.9147 7.56663C17.44 7.77635 16.9268 7.91984 16.3859 7.98607C16.9378 7.65493 17.3572 7.13615 17.5559 6.5125C17.0427 6.81604 16.4742 7.0368 15.8671 7.15822C15.3814 6.63944 14.6916 6.31934 13.9244 6.31934C12.4564 6.31934 11.2643 7.51144 11.2643 8.97949C11.2643 9.18921 11.2864 9.39341 11.336 9.58658C9.12292 9.4762 7.16368 8.41655 5.85016 6.80501C5.62388 7.19686 5.49142 7.65493 5.49142 8.1406C5.49142 9.06227 5.96054 9.87908 6.678 10.3537C6.242 10.3427 5.8336 10.2213 5.47487 10.0226C5.47487 10.0336 5.47487 10.0447 5.47487 10.0557C5.47487 11.3471 6.39102 12.4178 7.61071 12.6662C7.38995 12.7269 7.15264 12.76 6.9098 12.76C6.73871 12.76 6.57314 12.7434 6.40757 12.7103C6.74423 13.77 7.72661 14.5371 8.89112 14.5592C7.98049 15.2711 6.83254 15.6961 5.58525 15.6961C5.37 15.6961 5.16028 15.6851 4.95056 15.6575C6.11507 16.4191 7.51689 16.8606 9.01805 16.8606Z" fill="white"/>
</g>
<defs>
<clipPath id="clip0_52_490">
<rect width="22.0759" height="22.0759" fill="white"/>
</clipPath>
</defs>
</svg>
